
<svg width="101px" height="30px" viewBox="0 0 101 30" version="1.1" xmlns="http://www.w3.org/2000/svg" xmlns:xlink="http://www.w3.org/1999/xlink">
    <defs></defs>
    <g id="Page-1" stroke="none" stroke-width="1" fill="none" fill-rule="evenodd">
        <g id="Electron---Log-In" transform="translate(-571.000000, -278.000000)">
            <g id="LOGO" transform="translate(572.000000, 279.000000)">
                <g id="winds-word-logo">
                    <path d="M44.7134,18.5225 C44.8394,18.8305 45.1474,19.0405 45.4974,19.0405 C45.8474,19.0405 46.1414,18.8305 46.2814,18.5225 C47.3034,15.9745 48.6054,12.7545 49.6694,10.1505 C49.7114,10.0385 49.7394,9.9265 49.7394,9.8005 C49.7394,9.3385 49.3614,8.9605 48.8994,8.9605 C48.5494,8.9605 48.2414,9.1845 48.1154,9.4785 L45.4974,15.9605 C44.6294,13.8185 43.6914,11.4805 42.8794,9.4785 C42.7394,9.1845 42.4454,8.9605 42.0954,8.9605 C41.7454,8.9605 41.4374,9.1845 41.3114,9.4785 L38.6934,15.9605 C37.8254,13.8185 36.8874,11.4805 36.0754,9.4785 C35.9354,9.1845 35.6414,8.9605 35.2914,8.9605 C34.8294,8.9605 34.4514,9.3385 34.4514,9.8005 C34.4514,9.9265 34.4654,10.0385 34.5214,10.1505 L37.9094,18.5225 C38.0354,18.8305 38.3434,19.0405 38.6934,19.0405 C39.0434,19.0405 39.3374,18.8305 39.4774,18.5225 C40.2614,16.5625 41.2134,14.2105 42.0954,12.0405 L44.7134,18.5225 Z" id="Fill-1" fill="#44BC75"></path>
                    <path d="M54.4994,18.2005 C54.4994,18.6625 54.8774,19.0405 55.3394,19.0405 C55.8014,19.0405 56.1794,18.6625 56.1794,18.2005 L56.1794,9.8005 C56.1794,9.3385 55.8014,8.9605 55.3394,8.9605 C54.8774,8.9605 54.4994,9.3385 54.4994,9.8005 L54.4994,18.2005 Z" id="Fill-2" fill="#44BC75"></path>
                    <path d="M61.4994,18.2005 C61.4994,18.6625 61.8774,19.0405 62.3394,19.0405 C62.8014,19.0405 63.1794,18.6625 63.1794,18.2005 L63.1794,11.8305 L70.1374,18.8025 C70.2914,18.9565 70.5014,19.0405 70.7394,19.0405 C71.2014,19.0405 71.5794,18.6625 71.5794,18.2005 L71.5794,9.8005 C71.5794,9.3385 71.2014,8.9605 70.7394,8.9605 C70.2774,8.9605 69.8994,9.3385 69.8994,9.8005 L69.8994,16.1705 L62.9274,9.1985 C62.7734,9.0585 62.5634,8.9605 62.3394,8.9605 C61.8774,8.9605 61.4994,9.3385 61.4994,9.8005 L61.4994,18.2005 Z" id="Fill-3" fill="#44BC75"></path>
                    <path d="M76.8994,18.2005 C76.8994,18.6625 77.2774,19.0405 77.7394,19.0405 L81.2394,19.0405 C84.0254,19.0405 86.2794,16.7865 86.2794,14.0005 C86.2794,11.2425 84.0674,9.0165 81.3234,8.9605 L77.7394,8.9605 C77.2774,8.9605 76.8994,9.3385 76.8994,9.8005 L76.8994,18.2005 Z M84.5994,14.0005 C84.5994,15.8485 83.0874,17.3605 81.2394,17.3605 L78.5794,17.3605 L78.5794,10.6405 L81.2394,10.6405 C83.0874,10.6405 84.5994,12.1525 84.5994,14.0005 L84.5994,14.0005 Z" id="Fill-4" fill="#44BC75"></path>
                    <path d="M94.7494,17.3605 C93.7414,17.3605 92.8874,17.1505 92.0334,16.8285 C91.6134,16.6745 91.1514,16.8565 90.9694,17.3325 C90.8014,17.7665 91.0534,18.2705 91.4874,18.4245 C92.3694,18.8025 93.6994,19.0405 94.7494,19.0405 L95.1694,19.0405 C97.6474,19.0405 99.439,17.9625 99.439,16.1005 C99.439,14.0985 97.6474,13.1605 95.1694,13.1605 C93.7414,13.1605 92.5794,12.8525 92.5794,11.9005 C92.5794,10.9485 93.7414,10.6405 95.1694,10.6405 C96.3594,10.6405 97.1154,10.8505 97.8994,11.1725 C98.3334,11.2985 98.7394,11.1865 98.9494,10.6545 C99.117,10.2205 98.8934,9.8005 98.4314,9.5905 C97.5354,9.1985 96.2054,8.9605 95.1694,8.9605 C92.6914,8.9605 90.8994,10.0385 90.8994,11.9005 C90.8994,13.9025 92.6914,14.8405 95.1694,14.8405 C96.5974,14.8405 97.7594,15.1485 97.7594,16.1005 C97.7594,17.0525 96.5974,17.3605 95.1694,17.3605 L94.7494,17.3605 Z" id="Fill-5" fill="#44BC75"></path>
                    <path d="M20.9708,4.0005 C21.0506,2.5514 19.8784,0.1129 16.9708,0.0005 C16.9367,-0.0008 16.9026,0.0008 16.8689,0.0038 C11.2231,0.503 12.1909,8.0361 16.9708,8.0005 C23.2379,7.9538 26.9708,8.0005 26.9708,8.0005" id="Stroke-6" stroke="#44BC75" stroke-width="2" stroke-linecap="round" stroke-linejoin="round"></path>
                    <path d="M7.9708,10.0005 C8.0506,8.5514 6.8784,6.1129 3.9708,6.0005 C3.9367,5.9992 3.9026,6.0008 3.8689,6.0038 C-1.7769,6.503 -0.8091,14.0361 3.9708,14.0005 C10.2379,13.9538 26.9708,14.0005 26.9708,14.0005" id="Stroke-7" stroke="#44BC75" stroke-width="2" stroke-linecap="round" stroke-linejoin="round"></path>
                    <path d="M12.9708,24.0001 C13.0506,25.4492 11.8784,27.8877 8.9708,28.0001 C8.9367,28.0015 8.9026,27.9998 8.8689,27.9968 C3.2231,27.4976 4.1909,19.9646 8.9708,20.0001 C15.2379,20.0468 26.9708,20.0001 26.9708,20.0001" id="Stroke-8" stroke="#44BC75" stroke-width="2" stroke-linecap="round" stroke-linejoin="round"></path>
                </g>
            </g>
        </g>
    </g>
</svg>
