<?xml version="1.0" encoding="UTF-8"?>
<svg width="23px" height="22px" viewBox="0 0 23 22" version="1.1" xmlns="http://www.w3.org/2000/svg" xmlns:xlink="http://www.w3.org/1999/xlink">
    <defs>
        <polygon id="path-1" points="0 -0.000275 22.6087026 -0.000275 22.6087026 21.8448786 0 21.8448786"></polygon>
    </defs>
    <g id="Onboarding-dashboard" stroke="none" stroke-width="1" fill="none" fill-rule="evenodd" transform="translate(-1294.000000, -105.000000)">
        <g id="Header-Controls" transform="translate(125.000000, 102.000000)">
            <g id="Page-1" transform="translate(1169.000000, 3.000000)">
                <mask id="mask-2" fill="white">
                    <use xlink:href="#path-1"></use>
                </mask>
                <g id="Clip-2"></g>
                <path d="M11.3037267,-0.00034375 C5.0615069,-0.00034375 -0.000277586207,5.01428125 -0.000277586207,11.1997187 C-0.000277586207,16.1469687 3.23845948,20.3448437 7.73119224,21.8257187 C8.29677414,21.9281562 8.5028819,21.5830312 8.5028819,21.2860312 C8.5028819,21.0199687 8.49316638,20.3159687 8.48761466,19.3809687 C5.3432569,20.0581562 4.67982586,17.8801562 4.67982586,17.8801562 C4.16559741,16.5862812 3.42444224,16.2418437 3.42444224,16.2418437 C2.39806724,15.5467812 3.50216638,15.5612188 3.50216638,15.5612188 C4.6368,15.6402812 5.23361034,16.7148437 5.23361034,16.7148437 C6.24194224,18.4267187 7.8790069,17.9324062 8.52370086,17.6457187 C8.62640776,16.9217812 8.91787328,16.4281562 9.24126121,16.1483437 C6.73118793,15.8657812 4.09203707,14.9053437 4.09203707,10.6132812 C4.09203707,9.39090625 4.53270517,8.39128125 5.25581724,7.60821875 C5.13923103,7.32496875 4.75130431,6.18646875 5.36615776,4.64509375 C5.36615776,4.64509375 6.31550259,4.34328125 8.47512328,5.79253125 C9.37658448,5.54434375 10.3439724,5.41990625 11.3051147,5.41578125 C12.264869,5.41990625 13.2322569,5.54434375 14.135106,5.79253125 C16.2933388,4.34328125 17.2406017,4.64509375 17.2406017,4.64509375 C17.8575371,6.18646875 17.4696103,7.32496875 17.3530241,7.60821875 C18.0775241,8.39128125 18.5154164,9.39090625 18.5154164,10.6132812 C18.5154164,14.9156562 15.8721017,15.8623437 13.3537009,16.1400937 C13.7596707,16.4852187 14.1212267,17.1692812 14.1212267,18.2135937 C14.1212267,19.7109687 14.1073474,20.9189062 14.1073474,21.2860312 C14.1073474,21.5850937 14.3106793,21.9336562 14.8845888,21.8243437 C19.3724638,20.3407187 22.609119,16.1455937 22.609119,11.1997187 C22.609119,5.01428125 17.5473345,-0.00034375 11.3037267,-0.00034375" id="Fill-1" fill="#000000" opacity="0.5" mask="url(#mask-2)"></path>
            </g>
        </g>
    </g>
</svg>
