
<svg width="22px" height="24px" viewBox="0 0 22 24" version="1.1" xmlns="http://www.w3.org/2000/svg" xmlns:xlink="http://www.w3.org/1999/xlink">
    <g id="Page-1" stroke="none" stroke-width="1" fill="none" fill-rule="evenodd" stroke-linecap="round" stroke-linejoin="round">
        <g id="Electron---RSS-Copy" transform="translate(-199.000000, -104.000000)" stroke="#ffffff" stroke-width="2">
            <g id="Header-Controls" transform="translate(125.000000, 102.000000)">
                <g id="logo-mark" transform="translate(75.000000, 3.000000)">
                    <path d="M16,3 C15.7624565,1.91337766 14.9234226,0.084635568 13,8.8817842e-16 C12.8178212,-0.000633235036 12.7934132,0.00056667776 13,8.8817842e-16 C8.72815725,0.377189307 9.42088631,6.02660373 13,6 C17.3280757,5.96488322 20,5.99990567 20,6" id="Stroke-6"></path>
                    <path d="M6,8 C5.96987936,6.91337766 5.10064397,5.08463557 3,5 C2.91925023,4.99936676 2.89396365,5.00056668 3,5 C-1.31762344,5.37718931 -0.599959212,11.0266037 3,11 C7.59185391,10.9648832 20,10.9999057 20,11" id="Stroke-7"></path>
                    <path d="M10,19 C9.86277719,20.0866009 9.00913626,21.9153336 7,22 C6.86687764,22.000677 6.84204472,21.9994021 7,22 C2.70601528,21.6227814 3.41080431,15.9734709 7,16 C11.4556528,16.0351161 20,16.0000938 20,16" id="Stroke-8"></path>
                </g>
            </g>
        </g>
    </g>
</svg>
