<?xml version="1.0" encoding="UTF-8" standalone="no"?>
<svg width="62px" height="62px" viewBox="0 0 62 62" version="1.1" xmlns="http://www.w3.org/2000/svg" xmlns:xlink="http://www.w3.org/1999/xlink">
    <!-- Generator: Sketch 40.1 (33804) - http://www.bohemiancoding.com/sketch -->
    <title>Group 4</title>
    <desc>Created with Sketch.</desc>
    <defs></defs>
    <g id="Landing" stroke="none" stroke-width="1" fill="none" fill-rule="evenodd">
        <g id="-landing" transform="translate(-434.000000, -2219.000000)">
            <g id="Group-6" transform="translate(135.000000, 1437.000000)">
                <g id="steps" transform="translate(300.000000, 630.000000)">
                    <g id="Group-4" transform="translate(0.000000, 153.000000)">
                        <circle id="Oval" stroke="#16C98D" cx="30" cy="30" r="30"></circle>
                        <path d="M21.575,42 L38.076,42 L38.076,37.07 L31.435,37.07 L36.394,30.516 C37.409,29.182 37.931,27.558 37.931,25.905 C37.931,21.758 34.48,18.307 30.333,18.307 C26.186,18.307 22.735,21.729 22.735,25.905 L27.665,25.905 C27.665,24.397 28.825,23.266 30.333,23.266 C31.841,23.266 33.001,24.426 33.001,25.905 C33.001,26.514 32.827,27.065 32.479,27.529 L21.575,42 Z" id="2" fill="#16C98D"></path>
                    </g>
                </g>
            </g>
        </g>
    </g>
</svg>