<?xml version="1.0" encoding="UTF-8" standalone="no"?>
<svg width="62px" height="62px" viewBox="0 0 62 62" version="1.1" xmlns="http://www.w3.org/2000/svg" xmlns:xlink="http://www.w3.org/1999/xlink">
    <!-- Generator: Sketch 40.1 (33804) - http://www.bohemiancoding.com/sketch -->
    <title>Group 4</title>
    <desc>Created with Sketch.</desc>
    <defs></defs>
    <g id="Landing" stroke="none" stroke-width="1" fill="none" fill-rule="evenodd">
        <g id="-landing" transform="translate(-434.000000, -2339.000000)">
            <g id="Group-6" transform="translate(135.000000, 1437.000000)">
                <g id="steps" transform="translate(300.000000, 630.000000)">
                    <g id="Group-4" transform="translate(0.000000, 273.000000)">
                        <circle id="Oval" stroke="#16C98D" cx="30" cy="30" r="30"></circle>
                        <path d="M35.959,28.95 C36.887,27.877 37.467,26.456 37.467,24.803 C37.467,21.178 34.741,18.22 30.536,18.22 C26.331,18.22 23.257,21.207 23.257,25.122 L28.245,25.122 C28.245,23.875 29.086,22.86 30.536,22.86 C31.638,22.86 32.827,23.498 32.827,25.006 C32.827,26.543 31.812,27.297 30.797,27.297 L29.84,27.297 L29.84,31.212 L30.797,31.212 C32.508,31.212 33.755,32.517 33.755,34.431 C33.755,36.026 32.74,37.36 30.797,37.36 C28.854,37.36 27.839,36.055 27.839,34.402 L22.909,34.402 C22.909,38.752 26.418,42.29 30.797,42.29 C35.147,42.29 38.685,38.752 38.685,34.431 C38.685,32.024 37.583,30.168 35.959,28.95 L35.959,28.95 Z" id="3" fill="#16C98D"></path>
                    </g>
                </g>
            </g>
        </g>
    </g>
</svg>