<?xml version="1.0" encoding="UTF-8" standalone="no"?>
<svg width="60px" height="60px" viewBox="0 0 60 60" version="1.1" xmlns="http://www.w3.org/2000/svg" xmlns:xlink="http://www.w3.org/1999/xlink">
    <!-- Generator: Sketch 40.3 (33839) - http://www.bohemiancoding.com/sketch -->
    <title>noun_174032_cc</title>
    <desc>Created with Sketch.</desc>
    <defs></defs>
    <g id="Landing" stroke="none" stroke-width="1" fill="none" fill-rule="evenodd">
        <g id="-landing" transform="translate(-135.000000, -810.000000)">
            <g id="noun_174032_cc" transform="translate(135.000000, 810.000000)">
                <g id="Group">
                    <path d="M3.22618011,40.3134969 C3.06912943,40.3919278 2.91207876,40.3919278 2.75502808,40.3919278 C2.12682537,40.3919278 1.577148,39.9997732 1.34157198,39.3723257 C1.10599597,38.5880165 1.49862266,37.7252762 2.28387605,37.4899835 C3.06912943,37.2546907 3.93290816,37.6468453 4.16848418,38.4311546 L4.16848418,38.4311546 C4.40406019,39.2154639 4.0114335,39.9997732 3.22618011,40.3134969 L3.22618011,40.3134969 Z M4.40406019,43.0585793 C3.69733214,43.450734 3.46175613,44.3919051 3.85438282,45.0977835 C4.08995884,45.568369 4.63963621,45.8036618 5.11078824,45.8036618 C5.34636426,45.8036618 5.58194027,45.7252309 5.81751629,45.568369 C6.52424434,45.1762144 6.75982035,44.2350432 6.36719366,43.5291649 C6.0530923,42.9017175 5.11078824,42.5879938 4.40406019,43.0585793 L4.40406019,43.0585793 Z M8.64442848,12.3920866 C9.03705518,12.3920866 9.42968187,12.2352247 9.74378322,11.921501 C10.2934606,11.2940536 10.2149353,10.3528825 9.66525789,9.80386597 C9.03705518,9.25484947 8.09475111,9.3332804 7.54507374,9.8822969 C6.99539637,10.5097443 7.07392171,11.4509155 7.62359908,11.9999319 C7.93770043,12.3136557 8.33032713,12.3920866 8.64442848,12.3920866 L8.64442848,12.3920866 Z M1.65567334,34.5096082 C2.44092672,34.4311773 3.06912943,33.7252989 2.99060409,32.8625587 C2.91207876,32.0782494 2.20535071,31.450802 1.34157198,31.529233 C0.556318595,31.6076639 -0.071884115,32.3135422 0.00664122367,33.1762824 C0.0851665624,33.9605917 0.713369272,34.5096082 1.49862266,34.5096082 L1.65567334,34.5096082 L1.65567334,34.5096082 Z M1.34157198,28.5488577 L1.49862266,28.5488577 C2.28387605,28.5488577 2.91207876,27.9998412 2.99060409,27.2155319 C3.06912943,26.4312227 2.51945206,25.6469134 1.65567334,25.5684824 C0.87041995,25.4900515 0.0851665624,26.039068 0.00664122367,26.9018082 L0.00664122367,26.9018082 C-0.071884115,27.7645484 0.556318595,28.4704268 1.34157198,28.5488577 L1.34157198,28.5488577 Z M23.9568695,3.60782268 L24.2709709,3.60782268 C25.0562243,3.45096082 25.6059016,2.66665154 25.448851,1.88234227 C25.2918003,1.09803299 24.5065469,0.549016494 23.7212935,0.70587835 C22.9360401,0.862740205 22.3863628,1.64704948 22.5434134,2.43135876 C22.6219388,3.13723711 23.2501415,3.60782268 23.9568695,3.60782268 L23.9568695,3.60782268 Z M4.40406019,17.0195113 C4.63963621,17.1763732 4.87521222,17.2548041 5.11078824,17.2548041 C5.66046561,17.2548041 6.13161764,17.0195113 6.36719366,16.5489258 C6.75982035,15.8430474 6.52424434,14.9018763 5.81751629,14.5097216 C5.11078824,14.117567 4.16848418,14.3528598 3.77585748,15.0587381 L3.77585748,15.0587381 C3.46175613,15.7646165 3.69733214,16.6273567 4.40406019,17.0195113 L4.40406019,17.0195113 Z M7.70212442,48.0781587 C7.07392171,48.6271752 7.07392171,49.5683463 7.62359908,50.1957938 C7.93770043,50.5095175 8.33032713,50.6663793 8.72295382,50.6663793 C9.03705518,50.6663793 9.42968187,50.5095175 9.74378322,50.2742247 C10.3719859,49.7252082 10.3719859,48.7840371 9.82230856,48.1565896 C9.27263119,47.5291422 8.33032713,47.5291422 7.70212442,48.0781587 L7.70212442,48.0781587 Z M2.28387605,22.6665381 C2.44092672,22.744969 2.5979774,22.744969 2.75502808,22.744969 C3.38323079,22.744969 3.93290816,22.3528144 4.16848418,21.725367 C4.40406019,20.9410577 4.0114335,20.0783175 3.22618011,19.8430247 C2.44092672,19.6077319 1.577148,19.9998866 1.34157198,20.7841959 C1.02747063,21.5685051 1.49862266,22.3528144 2.28387605,22.6665381 L2.28387605,22.6665381 Z M24.2709709,56.5486989 C23.4857175,56.3918371 22.7004641,56.8624226 22.5434134,57.7251628 C22.3863628,58.5094721 22.8575148,59.2937814 23.7212935,59.4506432 L24.0353949,59.4506432 C24.7421229,59.4506432 25.3703256,58.9800577 25.448851,58.2741793 C25.6059016,57.48987 25.0562243,56.7055608 24.2709709,56.5486989 L24.2709709,56.5486989 Z M18.9312479,54.7447876 C18.1459945,54.4310639 17.2822157,54.7447876 16.9681144,55.5290968 C16.654013,56.2349752 16.9681144,57.1761463 17.7533678,57.48987 C17.9889438,57.568301 18.1459945,57.6467319 18.3815705,57.6467319 C18.9312479,57.6467319 19.4809252,57.3330082 19.7165012,56.7839917 C19.9520773,55.9996824 19.6379759,55.1369422 18.9312479,54.7447876 L18.9312479,54.7447876 Z M18.3030451,5.41173401 C18.5386212,5.41173401 18.6956718,5.33330309 18.9312479,5.25487216 C19.7165012,4.94114845 20.0306026,4.07840824 19.7165012,3.29409897 C19.4023999,2.50978969 18.5386212,2.19606598 17.7533678,2.50978969 C16.9681144,2.8235134 16.654013,3.6862536 16.9681144,4.47056288 C17.2036904,5.0980103 17.6748424,5.41173401 18.3030451,5.41173401 L18.3030451,5.41173401 Z M13.9841515,51.9212742 C13.3559488,51.4506886 12.4136447,51.6075505 11.9424927,52.2349979 C11.4713407,52.8624453 11.6283914,53.8036164 12.2565941,54.274202 C12.4921701,54.4310639 12.8062714,54.5879257 13.1203728,54.5879257 C13.5915248,54.5879257 14.0626769,54.3526329 14.2982529,53.9604783 C14.8479302,53.3330309 14.6908796,52.3918597 13.9841515,51.9212742 L13.9841515,51.9212742 Z M13.1203728,8.4705402 C13.4344741,8.4705402 13.7485755,8.39210927 13.9841515,8.15681649 C14.6123542,7.68623092 14.7694049,6.74505979 14.2982529,6.11761236 C13.8271008,5.49016494 12.8847968,5.33330309 12.2565941,5.80388865 C11.6283914,6.27447422 11.4713407,7.21564535 11.9424927,7.84309277 C12.1780687,8.23524741 12.6492208,8.4705402 13.1203728,8.4705402 L13.1203728,8.4705402 Z M60,30.0390453 C60,13.4901196 46.4936417,0 29.9247953,0 C29.6106939,0 29.3751179,0.0784309277 29.1395419,0.235292783 C29.1395419,0.235292783 29.1395419,0.235292783 29.0610165,0.235292783 C28.6683899,0.470585566 28.4328138,0.941171133 28.4328138,1.49018763 C28.4328138,2.2744969 29.0610165,2.98037525 29.9247953,2.98037525 C44.8446096,2.98037525 57.0160371,15.1371691 57.0160371,30.0390453 C57.0160371,44.9409216 44.8446096,57.0977154 29.9247953,57.0977154 C29.1395419,57.0977154 28.4328138,57.7251628 28.4328138,58.587903 C28.4328138,58.9800577 28.5898645,59.2937814 28.8254405,59.5290742 L28.9039659,59.6075051 C28.9824912,59.685936 29.1395419,59.7643669 29.2965926,59.8427979 C29.2965926,59.8427979 29.3751179,59.8427979 29.3751179,59.9212288 C29.4536432,59.9212288 29.5321686,59.9212288 29.5321686,59.9996597 L29.6106939,59.9996597 L29.9247953,59.9996597 L29.9247953,59.9996597 C46.4936417,60.0780907 60,46.5879711 60,30.0390453 L60,30.0390453 Z" id="Shape" fill="#16C98D"></path>
                    <g id="Group-10" transform="translate(16.000000, 27.000000)" fill="#99A9B3">
                        <path d="M27.6819849,3.07809066 C27.6819849,1.5094721 26.5271072,0.0977154007 24.9391504,0.0977154007 C23.4955532,0.0977154007 22.1963158,1.35261024 22.1963158,3.07809066 C22.1963158,4.64670921 23.3511935,6.05846591 24.9391504,6.05846591 C26.5271072,6.05846591 27.6819849,4.64670921 27.6819849,3.07809066 L27.6819849,3.07809066 Z" id="Path"></path>
                        <path d="M5.88366816,3.07809066 C5.88366816,1.5094721 4.72879045,0.0977154007 3.1408336,0.0977154007 C1.69723647,0.0977154007 0.397999043,1.35261024 0.397999043,3.07809066 C0.397999043,4.64670921 1.55287675,6.05846591 3.1408336,6.05846591 C4.72879045,6.05846591 5.88366816,4.64670921 5.88366816,3.07809066 L5.88366816,3.07809066 Z" id="Path"></path>
                        <path d="M16.8550064,3.07809066 C16.8550064,1.5094721 15.7001287,0.0977154007 14.1121718,0.0977154007 C12.6685747,0.0977154007 11.3693373,1.35261024 11.3693373,3.07809066 C11.3693373,4.64670921 12.524215,6.05846591 14.1121718,6.05846591 C15.555769,6.05846591 16.8550064,4.64670921 16.8550064,3.07809066 L16.8550064,3.07809066 Z" id="Path"></path>
                    </g>
                </g>
            </g>
        </g>
    </g>
</svg>