<?xml version="1.0" encoding="UTF-8" standalone="no"?>
<svg width="103px" height="94px" viewBox="0 0 103 94" version="1.1" xmlns="http://www.w3.org/2000/svg" xmlns:xlink="http://www.w3.org/1999/xlink">
    <!-- Generator: Sketch 40.1 (33804) - http://www.bohemiancoding.com/sketch -->
    <title>Group 2</title>
    <desc>Created with Sketch.</desc>
    <defs></defs>
    <g id="Landing" stroke="none" stroke-width="1" fill="none" fill-rule="evenodd">
        <g id="-landing" transform="translate(-1071.000000, -26.000000)">
            <g id="hero" transform="translate(0.000000, -3.000000)">
                <g id="Group-2" transform="translate(1071.000000, 29.000000)">
                    <path d="M51.8530415,17.099661 C33.0243976,17.099661 17.7586207,32.4636725 17.7586207,51.4134778 C17.7586207,66.5758957 27.5266723,79.4349985 41.0749427,83.9730008 C42.7796638,84.2904036 43.4061488,83.2266753 43.4061488,82.3216484 C43.4061488,81.502406 43.3720543,78.8001929 43.3592689,75.9349892 C33.8724963,78.0109751 31.8737109,71.8859588 31.8737109,71.8859588 C30.3224148,67.9184237 28.0892302,66.8632739 28.0892302,66.8632739 C24.9951615,64.731528 28.3236293,64.7787095 28.3236293,64.7787095 C31.7458568,65.0189062 33.5485993,68.3130326 33.5485993,68.3130326 C36.5915264,73.5587574 41.5266938,72.040371 43.4700758,71.1653687 C43.7769256,68.9478383 44.6591187,67.4337411 45.6350715,66.5758957 C38.0618483,65.7094718 30.100801,62.767062 30.100801,49.6162917 C30.100801,45.8717964 31.4347452,42.8092883 33.6125264,40.4073211 C33.2587968,39.5408972 32.0910628,36.0537556 33.9406852,31.3270273 C33.9406852,31.3270273 36.8046165,30.4048435 43.3209127,34.8441935 C46.0399428,34.0850003 48.9550157,33.7032591 51.8530415,33.6903914 C54.7510673,33.7032591 57.6704021,34.0850003 60.3936939,34.8441935 C66.9014665,30.4048435 69.761136,31.3270273 69.761136,31.3270273 C71.6150202,36.0537556 70.4515481,39.5451864 70.0978185,40.4073211 C72.2841232,42.8092883 73.605282,45.8717964 73.605282,49.6162917 C73.605282,62.7970866 65.6271875,65.6966041 58.0369171,66.5458711 C59.2600544,67.6095994 60.3510759,69.698453 60.3510759,72.8982164 C60.3510759,77.4876894 60.3127197,81.1850032 60.3127197,82.3130699 C60.3127197,83.2266753 60.9264193,84.2946928 62.6567111,83.9601331 C76.196458,79.4178416 85.9517241,66.5587388 85.9517241,51.4048994 C85.9517241,32.455094 70.6859472,17.0910825 51.8573033,17.0910825 L51.8530415,17.099661 Z" id="Page-1" fill="#3A4047" opacity="0.148729011"></path>
                    <g id="Page-1" transform="translate(51.727273, 47.027586) rotate(-90.000000) translate(-51.727273, -47.027586) translate(5.227273, -4.472414)" fill="#16C98D">
                        <path d="M8.90538,24.3353182 L8.14936,24.1864848 L5.81786621,27.4109697 L6.19363862,28.0846364 L4.74268828,30.0913939 L0.160466897,21.9269242 L1.40129724,20.2114242 L10.3563303,22.3285606 L8.90538,24.3353182 Z M4.6928931,25.3265909 L5.84365172,23.735 L3.56799103,23.2422121 L4.6928931,25.3265909 Z" id="Fill-1"></path>
                        <polygon id="Fill-2" points="17.6389276 8.98981818 14.0776138 11.3989242 14.3827779 11.8518333 16.1493345 10.6576061 17.5414683 12.7256061 15.7749828 13.9205455 17.4436538 16.4001515 15.3803862 17.7959091 13.7116441 15.316303 12.3195103 13.2475909 12.0143462 12.7946818 10.631731 10.7402121 16.2563124 6.93534848"></polygon>
                        <path d="M26.4707159,11.5007576 L23.6029117,9.48189394 L24.7191476,12.2192879 L22.5257448,13.1179848 L19.3125,5.23978788 L23.0366248,3.71371212 C23.3818524,3.59621212 23.7260145,3.54493939 24.069111,3.55775758 C24.4121366,3.57128788 24.7377586,3.64677273 25.0459062,3.78563636 C25.3540538,3.92378788 25.632509,4.11748485 25.8813428,4.36601515 C26.1301766,4.61454545 26.3234614,4.90793939 26.4611262,5.24548485 C26.6632903,5.74112121 26.7156428,6.24601515 26.6182545,6.75945455 C26.5208662,7.27360606 26.3026483,7.71725758 25.9635297,8.08969697 L29.0902545,10.4275909 L26.4707159,11.5007576 Z M22.3834628,6.49240909 L22.6802448,7.22019697 L24.1004372,6.63768182 C24.1846131,6.6035 24.2500359,6.53015152 24.2966345,6.41906061 C24.3433041,6.30725758 24.3494131,6.20969697 24.3150324,6.12495455 C24.2676524,6.00887879 24.1916455,5.9355303 24.0869407,5.90490909 C23.9822359,5.87357576 23.887831,5.87571212 23.8036552,5.90989394 L22.3834628,6.49240909 Z" id="Fill-3"></path>
                        <polygon id="Fill-4" points="37.3914152 2.63128788 31.4682048 3.69804545 31.5646697 4.23640909 36.0951779 3.42031818 36.5292697 5.84295455 31.9986903 6.65904545 32.0951552 7.19740909 38.0184366 6.13065152 38.4555117 8.56966667 32.5322303 9.63642424 30.0992283 10.0743788 29.6621531 7.63536364 29.5656883 7.097 29.1315966 4.67436364 29.0351317 4.13671212 28.5980566 1.69698485 36.95434 0.192272727"></polygon>
                        <polygon id="Fill-5" points="48.3177262 2.87269697 42.306291 2.59069697 42.2807897 3.13760606 46.8787807 3.35266667 46.76406 5.81162121 42.1659979 5.59584848 42.1404966 6.14204545 48.1520028 6.42404545 48.0364297 8.89937879 42.0249945 8.61737879 39.5556938 8.50130303 39.9524924 -2.1649349e-15 42.4217931 0.115363636 48.4332993 0.397363636"></polygon>
                        <path d="M60.9298986,3.72368182 C61.4985297,3.95512121 61.9849028,4.27628788 62.3889469,4.68718182 C62.7930621,5.09736364 63.1029855,5.55881818 63.3187172,6.07083333 C63.534449,6.58284848 63.6481041,7.12762121 63.6598248,7.70372727 C63.6715455,8.28054545 63.5619393,8.85380303 63.3309352,9.42421212 C63.099931,9.99390909 62.7797076,10.4817121 62.3702648,10.8869091 C61.960751,11.2921061 61.5005897,11.6025909 60.9897097,11.8190758 C60.4789007,12.0348485 59.9358421,12.1487879 59.3606759,12.1608939 C58.7855097,12.1722879 58.213611,12.0626212 57.64498,11.8311818 C57.076349,11.5997424 56.5899759,11.2785758 56.1858607,10.8676818 C55.7818166,10.4575 55.4718931,9.99604545 55.2561614,9.4840303 C55.0404297,8.97201515 54.9267745,8.42724242 54.9150538,7.85113636 C54.9033331,7.27431818 55.0129393,6.70106061 55.2439434,6.13065152 C55.4748766,5.56095455 55.795171,5.07315152 56.2046138,4.66795455 C56.6141276,4.26275758 57.074289,3.95227273 57.585169,3.73578788 C58.0959779,3.52001515 58.6390366,3.40607576 59.2142028,3.3939697 C59.789369,3.38257576 60.3612676,3.49224242 60.9298986,3.72368182 L60.9298986,3.72368182 Z M58.6009621,9.47192424 C58.8326055,9.56592424 59.0719207,9.6115 59.3188366,9.60722727 C59.5658234,9.60366667 59.7929207,9.55737879 60.0002703,9.46978788 C60.207549,9.38219697 60.3976372,9.25330303 60.5705352,9.08381818 C60.7435041,8.91433333 60.879109,8.7085303 60.9774917,8.46569697 C61.0716124,8.23354545 61.1166483,7.99356061 61.1126703,7.74574242 C61.1087634,7.49863636 61.0630172,7.27075758 60.9754317,7.06281818 C60.8879172,6.85487879 60.7570007,6.66331818 60.5828241,6.48813636 C60.4085766,6.31224242 60.205631,6.17765152 59.9739166,6.08293939 C59.73176,5.98466667 59.4898166,5.93837879 59.2480862,5.94407576 C59.0064269,5.95048485 58.7819579,5.99748485 58.5746083,6.08507576 C58.3673297,6.17266667 58.1761759,6.30440909 58.0010759,6.47887879 C57.8260469,6.65334848 57.6915076,6.85701515 57.5973869,7.08916667 C57.4990041,7.332 57.4528317,7.57483333 57.4589407,7.81695455 C57.4650497,8.05907576 57.5118614,8.28410606 57.5994469,8.49204545 C57.6869614,8.69998485 57.8151786,8.89012121 57.9841697,9.06387879 C58.1531607,9.23692424 58.3587345,9.37293939 58.6009621,9.47192424 L58.6009621,9.47192424 Z" id="Fill-6"></path>
                        <path d="M70.3049586,8.93142424 C70.6537379,9.16713636 70.9314828,9.46195455 71.1389034,9.81587879 C71.3463241,10.169803 71.4784483,10.5479394 71.5359862,10.951 C71.5935241,11.3547727 71.5736345,11.7706515 71.4763172,12.2000606 C71.379,12.6294697 71.1964414,13.0417879 70.9293517,13.4384394 C70.6686552,13.8258333 70.3575241,14.1441515 69.996669,14.3948182 C69.6358138,14.6454848 69.2579103,14.8192424 68.8632428,14.9160909 C68.4685752,15.0129394 68.0689352,15.0314545 67.6642517,14.9702121 C67.2595683,14.9089697 66.8830145,14.7608485 66.5345903,14.5244242 L65.8142297,14.0366212 L64.8309703,15.4950455 L62.7828331,14.1071212 L67.5368159,7.05569697 L68.4549366,7.67737879 L69.584669,8.44290909 L70.3049586,8.93142424 Z M67.4121503,12.5817576 C67.6758303,12.7605 67.9710497,12.8060758 68.2978793,12.7177727 C68.624709,12.6301818 68.8803621,12.449303 69.0646966,12.1751364 C69.2621724,11.8824545 69.3403103,11.567697 69.300531,11.2308636 C69.2600414,10.8940303 69.1080276,10.6362424 68.8440634,10.4575 L68.4202717,10.1705152 L66.9883586,12.2947727 L67.4121503,12.5817576 Z" id="Fill-7"></path>
                        <polygon id="Fill-8" points="79.4257862 20.4072576 75.2375931 16.0754242 74.8454828 16.455697 78.0491379 19.769197 76.2867724 21.4825606 73.0831172 18.1690606 72.6910069 18.5493333 76.8799103 22.8818788 75.1047586 24.6066364 70.9158552 20.2740909 69.1954 18.4945 75.2922897 12.5710758 77.0127448 14.3506667 81.2009379 18.6825"></polygon>
                        <polygon id="Fill-9" points="86.3509379 26.6119697 87.613931 28.7419242 80.3165586 33.0918455 79.0528552 30.9616773 81.1973862 25.5480606 77.2407655 27.9058939 75.9777724 25.7759394 83.2751448 21.426303 84.5388483 23.5562576 82.233069 29.0666515"></polygon>
                        <path d="M88.4642138,41.4567061 C88.5402207,41.8248015 88.5459034,42.1845652 88.479131,42.5358545 C88.413069,42.8872152 88.2852069,43.2078121 88.0955448,43.497503 C87.9058828,43.7872652 87.6672069,44.0349409 87.3788069,44.2405303 C87.0911172,44.4461197 86.7629379,44.5872621 86.3956897,44.6638864 C86.0284414,44.7405106 85.6697172,44.7427182 85.3180966,44.6705803 C84.9657655,44.5985136 84.6461103,44.4674833 84.357,44.2775606 C84.0678897,44.0876379 83.8199793,43.8454455 83.6139793,43.5509833 C83.407269,43.2565212 83.2666207,42.9252424 83.1899034,42.5570758 L82.6202069,39.8129879 L84.8897586,39.3394273 L85.4594552,42.0835152 C85.4786345,42.1727439 85.5297793,42.2522167 85.6136,42.3219333 C85.698131,42.3917212 85.801131,42.413797 85.9233103,42.3882318 C86.0128138,42.3697167 86.0845586,42.3110379 86.1392552,42.2122667 C86.1946621,42.1134955 86.2124207,42.0194955 86.1939517,41.9302667 L86.1214966,41.5789061 C86.0447793,41.2108106 86.0426483,40.8504773 86.1143931,40.4979773 C86.1861379,40.1454773 86.3168414,39.8243106 86.5065034,39.5346197 C86.6961655,39.2448576 86.9376828,38.9966121 87.2310552,38.7898121 C87.5251379,38.5830833 87.8554483,38.4413712 88.2226966,38.364747 C88.5899448,38.2881227 88.9493793,38.2859152 89.301,38.3579818 C89.6526207,38.4301197 89.9729862,38.56115 90.2620966,38.7510727 C90.5512069,38.9409955 90.7984069,39.1831879 91.0051172,39.47765 C91.2111172,39.7721121 91.3524759,40.1033909 91.4291931,40.4714864 L92.0052828,43.2491152 L89.735731,43.7226758 L89.158931,40.9451182 C89.1404621,40.8558894 89.0893172,40.7764167 89.0047862,40.7066288 C88.9209655,40.6369121 88.8172552,40.6148364 88.6950759,40.6404015 C88.6062828,40.6589167 88.5288552,40.7187348 88.4627931,40.8198561 C88.396731,40.9209061 88.3725793,41.0160455 88.3910483,41.1052742 L88.4642138,41.4567061 Z" id="Fill-10"></path>
                        <path d="M92.7134966,50.5076242 C92.7198897,51.1228258 92.6126276,51.6965818 92.3902897,52.2286788 C92.1686621,52.760847 91.8639241,53.2254348 91.4753655,53.6225848 C91.0875172,54.0196636 90.6307655,54.3349197 90.1044,54.5682818 C89.5780345,54.8015727 89.0083379,54.9214227 88.3946,54.9277606 C87.7808621,54.9340985 87.2083241,54.8260697 86.6776966,54.6036742 C86.147069,54.3812788 85.6839241,54.0755652 85.2875517,53.6865333 C84.8911793,53.2975015 84.5772069,52.8392515 84.3442138,52.3118545 C84.1112207,51.7843864 83.9918828,51.2130515 83.9854897,50.5977788 C83.9790966,49.9825773 84.087069,49.4088924 84.3086966,48.8767242 C84.5303241,48.3446273 84.8357724,47.8799682 85.2236207,47.4828182 C85.611469,47.0857394 86.068931,46.7704833 86.5945862,46.5371924 C87.1209517,46.3038303 87.6906483,46.1839803 88.3043862,46.1776424 C88.9181241,46.1713045 89.4906621,46.2793333 90.0212897,46.5018 C90.5519172,46.7241955 91.0157724,47.0299091 91.4121448,47.4188697 C91.8078069,47.8079015 92.1224897,48.2661515 92.3554828,48.7936197 C92.5877655,49.3210167 92.7078138,49.8923515 92.7134966,50.5076242 L92.7134966,50.5076242 Z M86.5256828,50.5715727 C86.5278138,50.8222394 86.5789586,51.0609424 86.6776966,51.2878242 C86.7771448,51.5147061 86.9064276,51.70705 87.0676759,51.8649273 C87.2282138,52.0228045 87.4200069,52.1489924 87.6423448,52.2435621 C87.8653931,52.3381318 88.1069103,52.3840636 88.3683172,52.3813576 C88.6183586,52.3787227 88.8563241,52.3278773 89.0829241,52.2286788 C89.3095241,52.1294803 89.5013172,51.9993045 89.6583034,51.8381515 C89.816,51.6769985 89.941731,51.4820197 90.0362069,51.2531439 C90.1306828,51.0242682 90.1761448,50.784497 90.1740138,50.5338303 C90.1711724,50.2718409 90.1200276,50.0302182 90.0212897,49.8090333 C89.9225517,49.5878485 89.7925586,49.398353 89.6320207,49.2404758 C89.4714828,49.0825985 89.2768483,48.9564106 89.0481172,48.8619121 C88.8200966,48.7674848 88.5807103,48.7214818 88.330669,48.7240455 C88.0692621,48.7267515 87.8284552,48.7776682 87.6075379,48.8767955 C87.387331,48.9759939 87.1983793,49.1060985 87.0406828,49.2672515 C86.8829862,49.4284045 86.7572552,49.6205348 86.6627793,49.8437136 C86.5690138,50.0668924 86.5228414,50.3095121 86.5256828,50.5715727 L86.5256828,50.5715727 Z" id="Fill-11"></path>
                        <path d="M90.6563379,65.3472333 L86.1662483,64.4139985 C85.6207034,64.3007 85.1305655,64.0911227 84.6944138,63.7852667 C84.2582621,63.4794106 83.8995379,63.1109591 83.6168207,62.6799121 C83.3348138,62.2489364 83.1401793,61.7721712 83.0336276,61.2496167 C82.9270759,60.7270621 82.9299172,60.1924727 83.0435724,59.6457773 C83.1565172,59.099153 83.3653586,58.6072909 83.6700966,58.1703333 C83.9755448,57.7333758 84.3427931,57.3733985 84.7732621,57.0904015 C85.2030207,56.8074045 85.6782414,56.6124258 86.1996345,56.5054652 C86.7210276,56.3985758 87.2544966,56.4017091 87.799331,56.5150788 L92.290131,57.4483136 L91.7360621,60.1258894 L87.2459724,59.1926545 C86.9007448,59.1210152 86.5825103,59.1885955 86.2898483,59.3954667 C85.9971862,59.6023379 85.8167586,59.8730864 85.7478552,60.2078545 C85.6782414,60.5425515 85.7364897,60.8630061 85.9233103,61.1693606 C86.1094207,61.4757152 86.3750897,61.6647121 86.7196069,61.7364227 L91.2104069,62.6696576 L90.6563379,65.3472333 Z" id="Fill-12"></path>
                        <path d="M80.2192414,68.790197 L83.6814621,68.2487 L80.9835724,67.0546864 L81.9404069,64.8813636 L89.7073172,68.3184879 L89.3216,69.1941121 L88.7504828,70.4918106 L88.0827586,72.0084152 C87.9151172,72.3327864 87.7027241,72.6095167 87.447,72.8386773 C87.1905655,73.0677667 86.9035862,73.2397439 86.5860621,73.3544667 C86.2685379,73.4692606 85.9339655,73.5235955 85.5823448,73.5175424 C85.2314345,73.5114894 84.8890483,73.4348652 84.5566069,73.2875985 C84.0678897,73.0713273 83.6807517,72.7443212 83.3951931,72.3066515 C83.1096345,71.8689106 82.9597517,71.3978424 82.9455448,70.893447 L79.0762966,71.3856652 L80.2192414,68.790197 Z M86.6293931,69.5531636 L85.9119448,69.2357 L85.2925241,70.6428515 C85.2555862,70.7262409 85.2591379,70.8243 85.302469,70.9369576 C85.3458,71.0496152 85.409731,71.1243879 85.4928414,71.1612045 C85.6072069,71.2118364 85.7123379,71.2118364 85.8096552,71.1612758 C85.9062621,71.1107152 85.9730345,71.0437045 86.0099724,70.9603152 L86.6293931,69.5531636 Z" id="Fill-13"></path>
                        <path d="M75.705,80.0727606 C75.3803724,79.3683303 75.2439862,78.6193212 75.2958414,77.8257333 C75.3469862,77.0320742 75.6126552,76.2955985 76.0914276,75.6163773 C76.4458897,75.1139758 76.8678345,74.712197 77.3586828,74.4111121 C77.849531,74.1099561 78.3695034,73.9100636 78.9193103,73.8112924 C79.4691172,73.7125212 80.0253172,73.7230606 80.5886207,73.8427682 C81.1512138,73.9624758 81.6832621,74.1999682 82.1840552,74.555103 C82.6855586,74.9102379 83.0861931,75.3337364 83.386669,75.8256697 C83.6871448,76.3175318 83.8824897,76.8398015 83.9727034,77.3923364 C84.0636276,77.9448712 84.0494207,78.5032455 83.9293724,79.0673879 C83.8100345,79.6316015 83.5734897,80.1649091 83.2190276,80.6673106 C82.7402552,81.3465318 82.1364621,81.8428803 81.4069379,82.1564985 C80.6781241,82.4700455 79.928,82.5909636 79.1572759,82.519253 L79.4776414,79.9626667 C79.7766966,79.9929318 80.0785931,79.9450773 80.3826207,79.819103 C80.6873586,79.6930576 80.9416621,79.4858303 81.1448207,79.1974212 C81.2890207,78.9927576 81.3856276,78.7717152 81.4346414,78.5343652 C81.4836552,78.2970864 81.4907586,78.0648636 81.4559517,77.8379106 C81.4211448,77.6109576 81.3394552,77.3921227 81.2094621,77.1814773 C81.079469,76.970903 80.9125379,76.7932288 80.7079586,76.6485258 C80.4948552,76.4972712 80.2696759,76.3970758 80.033131,76.3478682 C79.7958759,76.2987318 79.5650138,76.2955985 79.3405448,76.338397 C79.1153655,76.3812667 78.8994207,76.4654394 78.6927103,76.5909864 C78.4852897,76.7165333 78.3098345,76.881603 78.1656345,77.0863379 C77.9624759,77.374747 77.849531,77.6822409 77.8282207,78.0088909 C77.8069103,78.3354697 77.8651586,78.6381924 78.0022552,78.9169879 L75.705,80.0727606 Z" id="Fill-14"></path>
                        <polygon id="Fill-15" points="71.2362207 89.6514318 75.6772966 85.5800924 75.3093379 85.1765333 71.912469 88.290497 70.2559448 86.474303 73.6528138 83.3602682 73.2848552 82.9567091 68.8433531 87.0279773 67.1751793 85.1991076 73.4404207 79.4554939 75.1090207 81.2843636 75.4769793 81.6879227 77.1335034 83.5041879 77.5014621 83.907747 79.1700621 85.7366167 77.3458966 87.4089621 72.9041103 91.4802303"></polygon>
                        <path d="M61.9437028,97.7668364 C61.5583407,97.9356091 61.1611159,98.0132303 60.7520993,97.9996288 C60.3430828,97.9860273 59.9533166,97.8956591 59.5828007,97.7283818 C59.2122848,97.5611758 58.8721717,97.321547 58.5626034,97.0095667 C58.2529641,96.6975152 58.0026386,96.3222985 57.8114848,95.8837742 C57.6249483,95.455647 57.5227297,95.0217515 57.5046869,94.5820167 C57.4867152,94.1422818 57.5424062,93.7293227 57.671831,93.3431394 C57.8011848,92.9570273 57.9998683,92.6088712 58.2678103,92.2988136 C58.5358234,91.9887561 58.86244,91.7492697 59.2478021,91.580497 L60.0445248,91.2315576 L59.3415676,89.6184606 L61.6068572,88.6263333 L65.0057152,96.4258409 L63.9902062,96.8705606 L62.7404255,97.417897 L61.9437028,97.7668364 Z M60.4153248,93.3632212 C60.1237283,93.4909045 59.927531,93.7167182 59.8268752,94.0405909 C59.7261483,94.3644636 59.7417759,94.677797 59.8736869,94.9805909 C60.0147614,95.30425 60.2380228,95.5391076 60.543471,95.6850924 C60.8489193,95.8310773 61.1474772,95.8401924 61.4390738,95.7124379 L61.9077593,95.5072045 L60.8840103,93.1579879 L60.4153248,93.3632212 Z" id="Fill-16"></path>
                        <path d="M50.0616938,92.6417 L52.5348303,95.1305636 L51.9112897,92.2406333 L54.22744,91.7384455 L56.0223393,100.057303 L55.0892303,100.259617 L53.706189,100.559562 L52.0898703,100.909997 C51.7295834,100.96483 51.3816566,100.955786 51.0461607,100.882794 C50.7106648,100.809873 50.4031566,100.678344 50.1237779,100.488279 C49.8443993,100.298214 49.6038055,100.058941 49.4020676,99.7704606 C49.2002586,99.4819803 49.06096,99.159603 48.9840297,98.8031864 C48.8710848,98.2797773 48.9072414,97.7736015 49.0924283,97.2846591 C49.2776862,96.7956455 49.5696379,96.3972136 49.9682834,96.0892924 L47.2956821,93.2415197 L50.0616938,92.6417 Z M53.21598,98.287753 L53.0501855,97.519303 L51.5505766,97.8445288 C51.4617124,97.8637561 51.384569,97.9242152 51.3192883,98.0257636 C51.2540076,98.1273833 51.2309924,98.2227364 51.2501717,98.3118227 C51.2765966,98.4343076 51.3386807,98.5199045 51.4364241,98.5686848 C51.5341676,98.6174652 51.6275069,98.6322061 51.716371,98.6129076 L53.21598,98.287753 Z" id="Fill-17"></path>
                        <path d="M42.2824945,102.092902 C41.6687566,102.098812 41.0965738,101.990285 40.5659462,101.767462 C40.0353186,101.544639 39.5721028,101.23857 39.1762986,100.849253 C38.7804234,100.459865 38.46638,100.001402 38.2340262,99.4737909 C38.0017434,98.9461803 37.8826186,98.374703 37.8767938,97.7595015 C37.870969,97.1442288 37.9791545,96.5706152 38.2014214,96.0386606 C38.4236883,95.5067061 38.7290655,95.0423318 39.117411,94.6455379 C39.5057566,94.2486727 39.9630766,93.9338439 40.489371,93.7009091 C41.0157366,93.4680455 41.5857172,93.3486227 42.1994552,93.3427833 C42.8131221,93.3369439 43.3853048,93.4454 43.9159324,93.6682227 C44.44656,93.8910455 44.9098469,94.1971864 45.305651,94.586503 C45.7014552,94.9758197 46.0155697,95.4342833 46.2478524,95.9619652 C46.4802062,96.4895758 46.59926,97.0609818 46.6050848,97.6762545 C46.6109807,98.2914561 46.5027241,98.8650697 46.2804572,99.3970242 C46.0581903,99.9289788 45.7528841,100.393424 45.3645386,100.790218 C44.9761221,101.187012 44.5188021,101.501912 43.9925076,101.734776 C43.4662131,101.967711 42.8961614,102.087062 42.2824945,102.092902 L42.2824945,102.092902 Z M42.2236069,95.8891864 C41.9735655,95.8916076 41.7353869,95.9423106 41.509,96.0412955 C41.2826131,96.1403515 41.0906069,96.2703136 40.9329814,96.4313955 C40.7754269,96.5924061 40.6493407,96.7844652 40.5548648,97.0075727 C40.460389,97.2306091 40.4143586,97.4732288 40.4168448,97.7352894 C40.41926,97.9858848 40.4698366,98.2247303 40.5685745,98.4516833 C40.6673834,98.6786364 40.7970214,98.8710515 40.9577014,99.0290712 C41.1183103,99.1870909 41.3127317,99.3134212 41.5409655,99.4080621 C41.7691283,99.5027742 42.0083014,99.5489197 42.2582717,99.5464985 C42.5196786,99.5440061 42.7607697,99.493303 42.9814738,99.3943182 C43.2021779,99.2954045 43.3912717,99.1653712 43.5488972,99.0043606 C43.7064517,98.84335 43.8325379,98.6484424 43.9269428,98.4196379 C44.0214186,98.1908333 44.067449,97.9511333 44.0650338,97.7004667 C44.0625476,97.4384061 44.011971,97.1967833 43.9132331,96.9755273 C43.8144952,96.7542712 43.6848572,96.5646333 43.5242483,96.4066848 C43.3636393,96.2486652 43.1720593,96.1223348 42.9495083,96.0275515 C42.7269572,95.9328394 42.4850138,95.8866939 42.2236069,95.8891864 L42.2236069,95.8891864 Z" id="Fill-18"></path>
                        <path d="M29.4822228,100.518188 L30.6005186,94.5728303 L30.6340469,94.579097 C30.7349159,94.2271667 30.8953117,93.9125515 31.1151634,93.6352515 C31.3350152,93.3579515 31.5916628,93.1310697 31.8851062,92.9546773 C32.1785497,92.7782136 32.5015434,92.6595742 32.8541586,92.5986879 C33.2068448,92.5378015 33.5674159,92.5422167 33.9360138,92.6119333 C34.3157641,92.6837152 34.6604945,92.8184485 34.9702759,93.0161333 C35.2800572,93.2138182 35.5413221,93.4545152 35.7539283,93.7382242 C35.9666055,94.0218621 36.1211055,94.3380439 36.2174283,94.6866985 C36.313751,95.0354242 36.3439407,95.3976091 36.3079262,95.7734667 L36.1500166,96.6132 L33.6537938,96.1413485 L33.8054524,95.3351561 C33.7280959,95.1930167 33.6167848,95.108203 33.4715903,95.0807864 C33.3264669,95.0532985 33.1919986,95.0916818 33.0683276,95.1957939 L31.9784455,100.990111 L29.4822228,100.518188 Z" id="Fill-19"></path>
                        <polygon id="Fill-20" points="19.3779228 94.149403 24.9360159 96.4627288 25.1451414 95.9576212 20.8939407 94.1882136 21.8352186 91.9152652 26.0864903 93.6846015 26.2956159 93.1794939 20.7375938 90.8662394 21.6854069 88.5774106 27.2435 90.8907364 29.5265483 91.8409197 28.5787352 94.1296773 28.3695386 94.6347848 27.4282607 96.9078045 27.2190641 97.4129121 26.271251 99.7016697 23.9881317 98.7514864 18.4300386 96.4382318"></polygon>
                        <path d="M13.0365324,85.2154864 C13.7371455,84.8859167 14.4834338,84.7445606 15.2754683,84.7915606 C16.0674317,84.8384894 16.8035621,85.0999803 17.4839303,85.5760333 C17.9872097,85.9281061 18.3905434,86.3492545 18.6938607,86.8393364 C18.9971069,87.3294182 19.1996972,87.8497652 19.3014897,88.4003061 C19.4032821,88.9509182 19.3961076,89.5086515 19.2801083,90.0735061 C19.1640379,90.6384318 18.9304055,91.1731636 18.57914,91.6777015 C18.2278745,92.1822394 17.8078476,92.5865106 17.3189883,92.8905864 C16.830129,93.1946621 16.3103697,93.3937 15.7597103,93.4878424 C15.2091221,93.5819848 14.6520697,93.5708758 14.0886241,93.4545152 C13.5251076,93.3381545 12.9917097,93.1039379 12.4884303,92.7517939 C11.8080621,92.2758121 11.309329,91.6732864 10.99216,90.9442167 C10.6750621,90.2152182 10.5498993,89.4642152 10.6168138,88.6912076 L13.1689407,88.9970636 C13.1404559,89.2967242 13.1900379,89.5988773 13.3175448,89.9034515 C13.4450517,90.2080258 13.6533248,90.4613985 13.9422221,90.6634985 C14.1472276,90.8069909 14.3682869,90.9025576 14.605329,90.9503409 C14.842371,90.998053 15.0740145,91.0038212 15.3001883,90.9675742 C15.5263621,90.9312561 15.7441538,90.8474394 15.9534924,90.7159818 C16.16276,90.5845242 16.3389966,90.4160364 16.48206,90.2105182 C16.6316586,89.9956 16.7303255,89.7693591 16.7779186,89.5317242 C16.8255117,89.2940894 16.8272876,89.0625788 16.7832462,88.8371924 C16.7391338,88.6118773 16.6538924,88.3958909 16.527451,88.1893045 C16.4009386,87.9827182 16.2352152,87.80775 16.0302097,87.6642576 C15.7412414,87.4621576 15.4338041,87.3512803 15.1078979,87.3316258 C14.7819917,87.3120424 14.4804503,87.3719318 14.2031317,87.5114364 L13.0365324,85.2154864 Z" id="Fill-21"></path>
                        <polygon id="Fill-22" points="1.52809379 82.281547 3.09028414 80.8537439 5.00842828 82.9629045 9.72021655 78.6564227 11.385691 80.4877848 6.67390276 84.7942667 8.5920469 86.9034273 7.02978552 88.3312303 5.11171241 86.2220697 3.44623793 84.3907076"></polygon>
                    </g>
                </g>
            </g>
        </g>
    </g>
</svg>