<?xml version="1.0" encoding="UTF-8" standalone="no"?>
<svg width="205px" height="186px" viewBox="0 0 205 186" version="1.1" xmlns="http://www.w3.org/2000/svg" xmlns:xlink="http://www.w3.org/1999/xlink">
    <!-- Generator: Sketch 40.1 (33804) - http://www.bohemiancoding.com/sketch -->
    <title>Group 2</title>
    <desc>Created with Sketch.</desc>
    <defs></defs>
    <g id="Landing" stroke="none" stroke-width="1" fill="none" fill-rule="evenodd">
        <g id="-landing" transform="translate(-135.000000, -3029.000000)">
            <g id="Group-2" transform="translate(135.000000, 3029.000000)">
                <path d="M103.706083,33.1993219 C66.0487952,33.1993219 35.5172414,63.9273449 35.5172414,101.826956 C35.5172414,132.151791 55.0533445,157.869997 82.1498855,166.946002 C85.5593275,167.580807 86.8122975,165.453351 86.8122975,163.643297 C86.8122975,162.004812 86.7441087,156.600386 86.7185379,150.869978 C67.7449927,155.02195 63.7474218,142.771918 63.7474218,142.771918 C60.6448295,134.836847 56.1784604,132.726548 56.1784604,132.726548 C49.990323,128.463056 56.6472587,128.557419 56.6472587,128.557419 C63.4917137,129.037812 67.0971987,135.626065 67.0971987,135.626065 C73.1830528,146.117515 83.0533876,143.080742 86.9401516,141.330737 C87.5538512,136.895677 89.3182374,133.867482 91.270143,132.151791 C76.1236966,130.418944 60.2016021,124.534124 60.2016021,98.2325834 C60.2016021,90.7435928 62.8694905,84.6185765 67.2250527,79.8146422 C66.5175935,78.0817944 64.1821257,71.1075111 67.8813703,61.6540546 C67.8813703,61.6540546 73.609233,59.8096869 86.6418254,68.688387 C92.0798855,67.1700006 97.9100315,66.4065182 103.706083,66.3807829 C109.502135,66.4065182 115.340804,67.1700006 120.787388,68.688387 C133.802933,59.8096869 139.522272,61.6540546 139.522272,61.6540546 C143.23004,71.1075111 140.903096,78.0903729 140.195637,79.8146422 C144.568246,84.6185765 147.210564,90.7435928 147.210564,98.2325834 C147.210564,124.594173 131.254375,130.393208 116.073834,132.091742 C118.520109,134.219199 120.702152,138.396906 120.702152,144.796433 C120.702152,153.975379 120.625439,161.370006 120.625439,163.62614 C120.625439,165.453351 121.852839,167.589386 125.313422,166.920266 C152.392916,157.835683 171.903448,132.117478 171.903448,101.809799 C171.903448,63.910188 141.371894,33.182165 103.714607,33.182165 L103.706083,33.1993219 Z" id="Page-1" fill="#2A3754"></path>
                <g id="Page-1" transform="translate(102.954545, 93.055172) rotate(-90.000000) translate(-102.954545, -93.055172) translate(9.954545, -9.444828)" fill="#16C98D">
                    <path d="M17.81076,48.6706364 L16.29872,48.3729697 L11.6357324,54.8219394 L12.3872772,56.1692727 L9.48537655,60.1827879 L0.320933793,43.8538485 L2.80259448,40.4228485 L20.7126607,44.6571212 L17.81076,48.6706364 Z M9.38578621,50.6531818 L11.6873034,47.47 L7.13598207,46.4844242 L9.38578621,50.6531818 Z" id="Fill-1"></path>
                    <polygon id="Fill-2" points="35.2778552 17.9796364 28.1552276 22.7978485 28.7655559 23.7036667 32.298669 21.3152121 35.0829366 25.4512121 31.5499655 27.8410909 34.8873076 32.800303 30.7607724 35.5918182 27.4232883 30.6326061 24.6390207 26.4951818 24.0286924 25.5893636 21.2634621 21.4804242 32.5126248 13.870697"></polygon>
                    <path d="M52.9414317,23.0015152 L47.2058234,18.9637879 L49.4382952,24.4385758 L45.0514897,26.2359697 L38.625,10.4795758 L46.0732497,7.42742424 C46.7637048,7.19242424 47.452029,7.08987879 48.1382221,7.11551515 C48.8242731,7.14257576 49.4755172,7.29354545 50.0918124,7.57127273 C50.7081076,7.84757576 51.2650179,8.2349697 51.7626855,8.7320303 C52.2603531,9.22909091 52.6469228,9.81587879 52.9222524,10.4909697 C53.3265807,11.4822424 53.4312855,12.4920303 53.236509,13.5189091 C53.0417324,14.5472121 52.6052966,15.4345152 51.9270593,16.1793939 L58.180509,20.8551818 L52.9414317,23.0015152 Z M44.7669255,12.9848182 L45.3604897,14.4403939 L48.2008745,13.2753636 C48.3692262,13.207 48.5000717,13.060303 48.593269,12.8381212 C48.6866083,12.6145152 48.6988262,12.4193939 48.6300648,12.2499091 C48.5353048,12.0177576 48.383291,11.8710606 48.1738814,11.8098182 C47.9644717,11.7471515 47.7756621,11.7514242 47.6073103,11.8197879 L44.7669255,12.9848182 Z" id="Fill-3"></path>
                    <polygon id="Fill-4" points="74.7828303 5.26257576 62.9364097 7.39609091 63.1293393 8.47281818 72.1903559 6.84063636 73.0585393 11.6859091 63.9973807 13.3180909 64.1903103 14.3948182 76.0368731 12.261303 76.9110234 17.1393333 65.0644607 19.2728485 60.1984566 20.1487576 59.3243062 15.2707273 59.1313766 14.194 58.2631931 9.34872727 58.0702634 8.27342424 57.1961131 3.3939697 73.90868 0.384545455"></polygon>
                    <polygon id="Fill-5" points="96.6354524 5.74539394 84.6125821 5.18139394 84.5615793 6.27521212 93.7575614 6.70533333 93.52812 11.6232424 84.3319959 11.191697 84.2809931 12.2840909 96.3040055 12.8480909 96.0728593 17.7987576 84.049989 17.2347576 79.1113876 17.0026061 79.9049848 -4.3298698e-15 84.8435862 0.230727273 96.8665986 0.794727273"></polygon>
                    <path d="M121.859797,7.44736364 C122.997059,7.91024242 123.969806,8.55257576 124.777894,9.37436364 C125.586124,10.1947273 126.205971,11.1176364 126.637434,12.1416667 C127.068898,13.165697 127.296208,14.2552424 127.31965,15.4074545 C127.343091,16.5610909 127.123879,17.7076061 126.66187,18.8484242 C126.199862,19.9878182 125.559415,20.9634242 124.74053,21.7738182 C123.921502,22.5842121 123.001179,23.2051818 121.979419,23.6381515 C120.957801,24.069697 119.871684,24.2975758 118.721352,24.3217879 C117.571019,24.3445758 116.427222,24.1252424 115.28996,23.6623636 C114.152698,23.1994848 113.179952,22.5571515 112.371721,21.7353636 C111.563633,20.915 110.943786,19.9920909 110.512323,18.9680606 C110.080859,17.9440303 109.853549,16.8544848 109.830108,15.7022727 C109.806666,14.5486364 110.025879,13.4021212 110.487887,12.261303 C110.949753,11.1219091 111.590342,10.146303 112.409228,9.33590909 C113.228255,8.52551515 114.148578,7.90454545 115.170338,7.47157576 C116.191956,7.0400303 117.278073,6.81215152 118.428406,6.78793939 C119.578738,6.76515152 120.722535,6.98448485 121.859797,7.44736364 L121.859797,7.44736364 Z M117.201924,18.9438485 C117.665211,19.1318485 118.143841,19.223 118.637673,19.2144545 C119.131647,19.2073333 119.585841,19.1147576 120.000541,18.9395758 C120.415098,18.7643939 120.795274,18.5066061 121.14107,18.1676364 C121.487008,17.8286667 121.758218,17.4170606 121.954983,16.9313939 C122.143225,16.4670909 122.233297,15.9871212 122.225341,15.4914848 C122.217527,14.9972727 122.126034,14.5415152 121.950863,14.1256364 C121.775834,13.7097576 121.514001,13.3266364 121.165648,12.9762727 C120.817153,12.6244848 120.411262,12.355303 119.947833,12.1658788 C119.46352,11.9693333 118.979633,11.8767576 118.496172,11.8881515 C118.012854,11.9009697 117.563916,11.9949697 117.149217,12.1701515 C116.734659,12.3453333 116.352352,12.6088182 116.002152,12.9577576 C115.652094,13.306697 115.383015,13.7140303 115.194774,14.1783333 C114.998008,14.664 114.905663,15.1496667 114.917881,15.6339091 C114.930099,16.1181515 115.023723,16.5682121 115.198894,16.9840909 C115.373923,17.3999697 115.630357,17.7802424 115.968339,18.1277576 C116.306321,18.4738485 116.717469,18.7458788 117.201924,18.9438485 L117.201924,18.9438485 Z" id="Fill-6"></path>
                    <path d="M140.609917,17.8628485 C141.307476,18.3342727 141.862966,18.9239091 142.277807,19.6317576 C142.692648,20.3396061 142.956897,21.0958788 143.071972,21.902 C143.187048,22.7095455 143.147269,23.541303 142.952634,24.4001212 C142.758,25.2589394 142.392883,26.0835758 141.858703,26.8768788 C141.33731,27.6516667 140.715048,28.288303 139.993338,28.7896364 C139.271628,29.2909697 138.515821,29.6384848 137.726486,29.8321818 C136.93715,30.0258788 136.13787,30.0629091 135.328503,29.9404242 C134.519137,29.8179394 133.766029,29.521697 133.069181,29.0488485 L131.628459,28.0732424 L129.661941,30.9900909 L125.565666,28.2142424 L135.073632,14.1113939 L136.909873,15.3547576 L139.169338,16.8858182 L140.609917,17.8628485 Z M134.824301,25.1635152 C135.351661,25.521 135.942099,25.6121515 136.595759,25.4355455 C137.249418,25.2603636 137.760724,24.8986061 138.129393,24.3502727 C138.524345,23.7649091 138.680621,23.1353939 138.601062,22.4617273 C138.520083,21.7880606 138.216055,21.2724848 137.688127,20.915 L136.840543,20.3410303 L133.976717,24.5895455 L134.824301,25.1635152 Z" id="Fill-7"></path>
                    <polygon id="Fill-8" points="158.851572 40.8145152 150.475186 32.1508485 149.690966 32.9113939 156.098276 39.5383939 152.573545 42.9651212 146.166234 36.3381212 145.382014 37.0986667 153.759821 45.7637576 150.209517 49.2132727 141.83171 40.5481818 138.3908 36.989 150.584579 25.1421515 154.02549 28.7013333 162.401876 37.365"></polygon>
                    <polygon id="Fill-9" points="172.701876 53.2239394 175.227862 57.4838485 160.633117 66.1836909 158.10571 61.9233545 162.394772 51.0961212 154.481531 55.8117879 151.955545 51.5518788 166.55029 42.8526061 169.077697 47.1125152 164.466138 58.133303"></polygon>
                    <path d="M176.928428,82.9134121 C177.080441,83.649603 177.091807,84.3691303 176.958262,85.0717091 C176.826138,85.7744303 176.570414,86.4156242 176.19109,86.9950061 C175.811766,87.5745303 175.334414,88.0698818 174.757614,88.4810606 C174.182234,88.8922394 173.525876,89.1745242 172.791379,89.3277727 C172.056883,89.4810212 171.339434,89.4854364 170.636193,89.3411606 C169.931531,89.1970273 169.292221,88.9349667 168.714,88.5551212 C168.135779,88.1752758 167.639959,87.6908909 167.227959,87.1019667 C166.814538,86.5130424 166.533241,85.8504848 166.379807,85.1141515 L165.240414,79.6259758 L169.779517,78.6788545 L170.91891,84.1670303 C170.957269,84.3454879 171.059559,84.5044333 171.2272,84.6438667 C171.396262,84.7834424 171.602262,84.8275939 171.846621,84.7764636 C172.025628,84.7394333 172.169117,84.6220758 172.27851,84.4245333 C172.389324,84.2269909 172.424841,84.0389909 172.387903,83.8605333 L172.242993,83.1578121 C172.089559,82.4216212 172.085297,81.7009545 172.228786,80.9959545 C172.372276,80.2909545 172.633683,79.6486212 173.013007,79.0692394 C173.392331,78.4897152 173.875366,77.9932242 174.46211,77.5796242 C175.050276,77.1661667 175.710897,76.8827424 176.445393,76.7294939 C177.17989,76.5762455 177.898759,76.5718303 178.602,76.7159636 C179.305241,76.8602394 179.945972,77.1223 180.524193,77.5021455 C181.102414,77.8819909 181.596814,78.3663758 182.010234,78.9553 C182.422234,79.5442242 182.704952,80.2067818 182.858386,80.9429727 L184.010566,86.4982303 L179.471462,87.4453515 L178.317862,81.8902364 C178.280924,81.7117788 178.178634,81.5528333 178.009572,81.4132576 C177.841931,81.2738242 177.63451,81.2296727 177.390152,81.280803 C177.212566,81.3178333 177.05771,81.4374697 176.925586,81.6397121 C176.793462,81.8418121 176.745159,82.0320909 176.782097,82.2105485 L176.928428,82.9134121 Z" id="Fill-10"></path>
                    <path d="M185.426993,101.015248 C185.439779,102.245652 185.225255,103.393164 184.780579,104.457358 C184.337324,105.521694 183.727848,106.45087 182.950731,107.24517 C182.175034,108.039327 181.261531,108.669839 180.2088,109.136564 C179.156069,109.603145 178.016676,109.842845 176.7892,109.855521 C175.561724,109.868197 174.416648,109.652139 173.355393,109.207348 C172.294138,108.762558 171.367848,108.15113 170.575103,107.373067 C169.782359,106.595003 169.154414,105.678503 168.688428,104.623709 C168.222441,103.568773 167.983766,102.426103 167.970979,101.195558 C167.958193,99.9651545 168.174138,98.8177848 168.617393,97.7534485 C169.060648,96.6892545 169.671545,95.7599364 170.447241,94.9656364 C171.222938,94.1714788 172.137862,93.5409667 173.189172,93.0743848 C174.241903,92.6076606 175.381297,92.3679606 176.608772,92.3552848 C177.836248,92.3426091 178.981324,92.5586667 180.042579,93.0036 C181.103834,93.4483909 182.031545,94.0598182 182.82429,94.8377394 C183.615614,95.615803 184.244979,96.532303 184.710966,97.5872394 C185.175531,98.6420333 185.415628,99.784703 185.426993,101.015248 L185.426993,101.015248 Z M173.051366,101.143145 C173.055628,101.644479 173.157917,102.121885 173.355393,102.575648 C173.55429,103.029412 173.812855,103.4141 174.135352,103.729855 C174.456428,104.045609 174.840014,104.297985 175.28469,104.487124 C175.730786,104.676264 176.213821,104.768127 176.736634,104.762715 C177.236717,104.757445 177.712648,104.655755 178.165848,104.457358 C178.619048,104.258961 179.002634,103.998609 179.316607,103.676303 C179.632,103.353997 179.883462,102.964039 180.072414,102.506288 C180.261366,102.048536 180.35229,101.568994 180.348028,101.067661 C180.342345,100.543682 180.240055,100.060436 180.042579,99.6180667 C179.845103,99.175697 179.585117,98.7967061 179.264041,98.4809515 C178.942966,98.165197 178.553697,97.9128212 178.096234,97.7238242 C177.640193,97.5349697 177.161421,97.4429636 176.661338,97.4480909 C176.138524,97.453503 175.65691,97.5553364 175.215076,97.7535909 C174.774662,97.9519879 174.396759,98.212197 174.081366,98.534503 C173.765972,98.8568091 173.51451,99.2410697 173.325559,99.6874273 C173.138028,100.133785 173.045683,100.619024 173.051366,101.143145 L173.051366,101.143145 Z" id="Fill-11"></path>
                    <path d="M181.312676,130.694467 L172.332497,128.827997 C171.241407,128.6014 170.261131,128.182245 169.388828,127.570533 C168.516524,126.958821 167.799076,126.221918 167.233641,125.359824 C166.669628,124.497873 166.280359,123.544342 166.067255,122.499233 C165.854152,121.454124 165.859834,120.384945 166.087145,119.291555 C166.313034,118.198306 166.730717,117.214582 167.340193,116.340667 C167.95109,115.466752 168.685586,114.746797 169.546524,114.180803 C170.406041,113.614809 171.356483,113.224852 172.399269,113.01093 C173.442055,112.797152 174.508993,112.803418 175.598662,113.030158 L184.580262,114.896627 L183.472124,120.251779 L174.491945,118.385309 C173.80149,118.24203 173.165021,118.377191 172.579697,118.790933 C171.994372,119.204676 171.633517,119.746173 171.49571,120.415709 C171.356483,121.085103 171.472979,121.726012 171.846621,122.338721 C172.218841,122.95143 172.750179,123.329424 173.439214,123.472845 L182.420814,125.339315 L181.312676,130.694467 Z" id="Fill-12"></path>
                    <path d="M160.438483,137.580394 L167.362924,136.4974 L161.967145,134.109373 L163.880814,129.762727 L179.414634,136.636976 L178.6432,138.388224 L177.500966,140.983621 L176.165517,144.01683 C175.830234,144.665573 175.405448,145.219033 174.894,145.677355 C174.381131,146.135533 173.807172,146.479488 173.172124,146.708933 C172.537076,146.938521 171.867931,147.047191 171.16469,147.035085 C170.462869,147.022979 169.778097,146.86973 169.113214,146.575197 C168.135779,146.142655 167.361503,145.488642 166.790386,144.613303 C166.219269,143.737821 165.919503,142.795685 165.89109,141.786894 L158.152593,142.77133 L160.438483,137.580394 Z M173.258786,139.106327 L171.82389,138.4714 L170.585048,141.285703 C170.511172,141.452482 170.518276,141.6486 170.604938,141.873915 C170.6916,142.09923 170.819462,142.248776 170.985683,142.322409 C171.214414,142.423673 171.424676,142.423673 171.61931,142.322552 C171.812524,142.22143 171.946069,142.087409 172.019945,141.92063 L173.258786,139.106327 Z" id="Fill-13"></path>
                    <path d="M151.41,160.145521 C150.760745,158.736661 150.487972,157.238642 150.591683,155.651467 C150.693972,154.064148 151.22531,152.591197 152.182855,151.232755 C152.891779,150.227952 153.735669,149.424394 154.717366,148.822224 C155.699062,148.219912 156.739007,147.820127 157.838621,147.622585 C158.938234,147.425042 160.050634,147.446121 161.177241,147.685536 C162.302428,147.924952 163.366524,148.399936 164.36811,149.110206 C165.371117,149.820476 166.172386,150.667473 166.773338,151.651339 C167.37429,152.635064 167.764979,153.679603 167.945407,154.784673 C168.127255,155.889742 168.098841,157.006491 167.858745,158.134776 C167.620069,159.263203 167.146979,160.329818 166.438055,161.334621 C165.48051,162.693064 164.272924,163.685761 162.813876,164.312997 C161.356248,164.940091 159.856,165.181927 158.314552,165.038506 L158.955283,159.925333 C159.553393,159.985864 160.157186,159.890155 160.765241,159.638206 C161.374717,159.386115 161.883324,158.971661 162.289641,158.394842 C162.578041,157.985515 162.771255,157.54343 162.869283,157.06873 C162.96731,156.594173 162.981517,156.129727 162.911903,155.675821 C162.84229,155.221915 162.67891,154.784245 162.418924,154.362955 C162.158938,153.941806 161.825076,153.586458 161.415917,153.297052 C160.98971,152.994542 160.539352,152.794152 160.066262,152.695736 C159.591752,152.597464 159.130028,152.591197 158.68109,152.676794 C158.230731,152.762533 157.798841,152.930879 157.385421,153.181973 C156.970579,153.433067 156.619669,153.763206 156.331269,154.172676 C155.924952,154.749494 155.699062,155.364482 155.656441,156.017782 C155.613821,156.670939 155.730317,157.276385 156.00451,157.833976 L151.41,160.145521 Z" id="Fill-14"></path>
                    <polygon id="Fill-15" points="142.472441 179.302864 151.354593 171.160185 150.618676 170.353067 143.824938 176.580994 140.51189 172.948606 147.305628 166.720536 146.56971 165.913418 137.686706 174.055955 134.350359 170.398215 146.880841 158.910988 150.218041 162.568727 150.953959 163.375845 154.267007 167.008376 155.002924 167.815494 158.340124 171.473233 154.691793 174.817924 145.808221 182.960461"></polygon>
                    <path d="M123.887406,195.533673 C123.116681,195.871218 122.322232,196.026461 121.504199,195.999258 C120.686166,195.972055 119.906633,195.791318 119.165601,195.456764 C118.42457,195.122352 117.744343,194.643094 117.125207,194.019133 C116.505928,193.39503 116.005277,192.644597 115.62297,191.767548 C115.249897,190.911294 115.045459,190.043503 115.009374,189.164033 C114.97343,188.284564 115.084812,187.458645 115.343662,186.686279 C115.60237,185.914055 115.999737,185.217742 116.535621,184.597627 C117.071647,183.977512 117.72488,183.498539 118.495604,183.160994 L120.08905,182.463115 L118.683135,179.236921 L123.213714,177.252667 L130.01143,192.851682 L127.980412,193.741121 L125.480851,194.835794 L123.887406,195.533673 Z M120.83065,186.726442 C120.247457,186.981809 119.855062,187.433436 119.65375,188.081182 C119.452297,188.728927 119.483552,189.355594 119.747374,189.961182 C120.029523,190.6085 120.476046,191.078215 121.086942,191.370185 C121.697839,191.662155 122.294954,191.680385 122.878148,191.424876 L123.815519,191.014409 L121.768021,186.315976 L120.83065,186.726442 Z" id="Fill-16"></path>
                    <path d="M100.123388,185.2834 L105.069661,190.261127 L103.822579,184.481267 L108.45488,183.476891 L112.044679,200.114606 L110.178461,200.519233 L107.412378,201.119124 L104.179741,201.819994 C103.459167,201.929661 102.763313,201.911573 102.092321,201.765588 C101.42133,201.619745 100.806313,201.356688 100.247556,200.976558 C99.6887986,200.596427 99.207611,200.117882 98.8041352,199.540921 C98.4005172,198.963961 98.12192,198.319206 97.9680593,197.606373 C97.7421697,196.559555 97.8144828,195.547203 98.1848566,194.569318 C98.5553724,193.591291 99.1392759,192.794427 99.9365669,192.178585 L94.5913641,186.483039 L100.123388,185.2834 Z M106.43196,196.575506 L106.100371,195.038606 L103.101153,195.689058 C102.923425,195.727512 102.769138,195.84843 102.638577,196.051527 C102.508015,196.254767 102.461985,196.445473 102.500343,196.623645 C102.553193,196.868615 102.677361,197.039809 102.872848,197.13737 C103.068335,197.23493 103.255014,197.264412 103.432742,197.225815 L106.43196,196.575506 Z" id="Fill-17"></path>
                    <path d="M84.564989,204.185803 C83.3375131,204.197624 82.1931476,203.98057 81.1318924,203.534924 C80.0706372,203.089279 79.1442055,202.477139 78.3525972,201.698506 C77.5608469,200.91973 76.93276,200.002803 76.4680524,198.947582 C76.0034869,197.892361 75.7652372,196.749406 75.7535876,195.519003 C75.7419379,194.288458 75.958309,193.14123 76.4028428,192.077321 C76.8473766,191.013412 77.458131,190.084664 78.2348221,189.291076 C79.0115131,188.497345 79.9261531,187.867688 80.9787421,187.401818 C82.0314731,186.936091 83.1714345,186.697245 84.3989103,186.685567 C85.6262441,186.673888 86.7706097,186.8908 87.8318648,187.336445 C88.89312,187.782091 89.8196938,188.394373 90.6113021,189.173006 C91.4029103,189.951639 92.0311393,190.868567 92.4957048,191.92393 C92.9604124,192.979152 93.19852,194.121964 93.2101697,195.352509 C93.2219614,196.582912 93.0054483,197.730139 92.5609145,198.794048 C92.1163807,199.857958 91.5057683,200.786848 90.7290772,201.580436 C89.9522441,202.374024 89.0376041,203.003824 87.9850152,203.469552 C86.9324262,203.935421 85.7923228,204.174124 84.564989,204.185803 L84.564989,204.185803 Z M84.4472138,191.778373 C83.947131,191.783215 83.4707738,191.884621 83.018,192.082591 C82.5652262,192.280703 82.1812138,192.540627 81.8659628,192.862791 C81.5508538,193.184812 81.2986814,193.56893 81.1097297,194.015145 C80.9207779,194.461218 80.8287172,194.946458 80.8336897,195.470579 C80.83852,195.97177 80.9396731,196.449461 81.137149,196.903367 C81.3347669,197.357273 81.5940428,197.742103 81.9154028,198.058142 C82.2366207,198.374182 82.6254634,198.626842 83.081931,198.816124 C83.5382566,199.005548 84.0166028,199.097839 84.5165434,199.092997 C85.0393572,199.088012 85.5215393,198.986606 85.9629476,198.788636 C86.4043559,198.590809 86.7825434,198.330742 87.0977945,198.008721 C87.4129034,197.6867 87.6650759,197.296885 87.8538855,196.839276 C88.0428372,196.381667 88.1348979,195.902267 88.1300676,195.400933 C88.1250952,194.876812 88.0239421,194.393567 87.8264662,193.951055 C87.6289903,193.508542 87.3697145,193.129267 87.0484966,192.81337 C86.7272786,192.49733 86.3441186,192.24467 85.8990166,192.055103 C85.4539145,191.865679 84.9700276,191.773388 84.4472138,191.778373 L84.4472138,191.778373 Z" id="Fill-18"></path>
                    <path d="M58.9644455,201.036376 L61.2010372,189.145661 L61.2680938,189.158194 C61.4698317,188.454333 61.7906234,187.825103 62.2303269,187.270503 C62.6700303,186.715903 63.1833255,186.262139 63.7702124,185.909355 C64.3570993,185.556427 65.0030869,185.319148 65.7083172,185.197376 C66.4136897,185.075603 67.1348317,185.084433 67.8720276,185.223867 C68.6315283,185.36743 69.320989,185.636897 69.9405517,186.032267 C70.5601145,186.427636 71.0826441,186.90903 71.5078566,187.476448 C71.933211,188.043724 72.242211,188.676088 72.4348566,189.373397 C72.6275021,190.070848 72.6878814,190.795218 72.6158524,191.546933 L72.3000331,193.2264 L67.3075876,192.282697 L67.6109048,190.670312 C67.4561917,190.386033 67.2335697,190.216406 66.9431807,190.161573 C66.6529338,190.106597 66.3839972,190.183364 66.1366552,190.391588 L63.956891,201.980221 L58.9644455,201.036376 Z" id="Fill-19"></path>
                    <polygon id="Fill-20" points="38.7558455 188.298806 49.8720317 192.925458 50.2902828 191.915242 41.7878814 188.376427 43.6704372 183.83053 52.1729807 187.369203 52.5912317 186.358988 41.4751876 181.732479 43.3708138 177.154821 54.487 181.781473 59.0530966 183.681839 57.1574703 188.259355 56.7390772 189.26957 54.8565214 193.815609 54.4381283 194.825824 52.5425021 199.403339 47.9762634 197.502973 36.8600772 192.876464"></polygon>
                    <path d="M26.0730648,170.430973 C27.474291,169.771833 28.9668676,169.489121 30.5509366,169.583121 C32.1348634,169.676979 33.6071241,170.199961 34.9678607,171.152067 C35.9744193,171.856212 36.7810869,172.698509 37.3877214,173.678673 C37.9942138,174.658836 38.3993945,175.69953 38.6029793,176.800612 C38.8065641,177.901836 38.7922152,179.017303 38.5602166,180.147012 C38.3280759,181.276864 37.860811,182.346327 37.15828,183.355403 C36.455749,184.364479 35.6156952,185.173021 34.6379766,185.781173 C33.6602579,186.389324 32.6207393,186.7874 31.5194207,186.975685 C30.4182441,187.16397 29.3041393,187.141752 28.1772483,186.90903 C27.0502152,186.676309 25.9834193,186.207876 24.9768607,185.503588 C23.6161241,184.551624 22.6186579,183.346573 21.98432,181.888433 C21.3501241,180.430436 21.0997986,178.92843 21.2336276,177.382415 L26.3378814,177.994127 C26.2809117,178.593448 26.3800759,179.197755 26.6350897,179.806903 C26.8901034,180.416052 27.3066497,180.922797 27.8844441,181.326997 C28.2944552,181.613982 28.7365738,181.805115 29.2106579,181.900682 C29.6847421,181.996106 30.148029,182.007642 30.6003766,181.935148 C31.0527241,181.862512 31.4883076,181.694879 31.9069848,181.431964 C32.32552,181.169048 32.6779931,180.832073 32.96412,180.421036 C33.2633172,179.9912 33.460651,179.538718 33.5558372,179.063448 C33.6510234,178.588179 33.6545752,178.125158 33.5664924,177.674385 C33.4782676,177.223755 33.3077848,176.791782 33.0549021,176.378609 C32.8018772,175.965436 32.4704303,175.6155 32.0604193,175.328515 C31.4824828,174.924315 30.8676083,174.702561 30.2157959,174.663252 C29.5639834,174.624085 28.9609007,174.743864 28.4062634,175.022873 L26.0730648,170.430973 Z" id="Fill-21"></path>
                    <polygon id="Fill-22" points="3.05618759 164.563094 6.18056828 161.707488 10.0168566 165.925809 19.4404331 157.312845 22.7713821 160.97557 13.3478055 169.588533 17.1840938 173.806855 14.059571 176.662461 10.2234248 172.444139 6.89247586 168.781415"></polygon>
                </g>
            </g>
        </g>
    </g>
</svg>