<?xml version="1.0" encoding="UTF-8" standalone="no"?>
<svg width="91px" height="25px" viewBox="0 0 91 25" version="1.1" xmlns="http://www.w3.org/2000/svg" xmlns:xlink="http://www.w3.org/1999/xlink">
    <!-- Generator: Sketch 40.1 (33804) - http://www.bohemiancoding.com/sketch -->
    <title>LOGO</title>
    <desc>Created with Sketch.</desc>
    <defs>
        <polygon id="path-1" points="21.5132743 0.0210530888 33.9611733 10.4353033 21.6843751 24.9150567 9.06537533 10.4353033"></polygon>
        <mask id="mask-2" maskContentUnits="userSpaceOnUse" maskUnits="objectBoundingBox" x="0" y="0" width="24.895798" height="24.8940036" fill="white">
            <use xlink:href="#path-1"></use>
        </mask>
        <polygon id="path-3" points="12.447899 7.01353794e-31 24.895798 10.4142503 12.6189998 24.8940036 -3.55271368e-15 10.4142503"></polygon>
        <mask id="mask-4" maskContentUnits="userSpaceOnUse" maskUnits="objectBoundingBox" x="0" y="0" width="24.895798" height="24.8940036" fill="white">
            <use xlink:href="#path-3"></use>
        </mask>
    </defs>
    <g id="Landing" stroke="none" stroke-width="1" fill="none" fill-rule="evenodd">
        <g id="-landing" transform="translate(-435.000000, -123.000000)">
            <g id="hero" transform="translate(0.000000, -3.000000)">
                <g id="LOGO" transform="translate(435.000000, 126.000000)">
                    <g>
                        <use id="Polygon-10" stroke="#16C98D" mask="url(#mask-2)" stroke-width="4" xlink:href="#path-1"></use>
                        <use id="Polygon-11" stroke="#16C98D" mask="url(#mask-4)" stroke-width="4" xlink:href="#path-3"></use>
                        <polygon id="Path-3" fill="#16C98D" points="16.9523991 18.5804219 10.2321626 10.5 24 10.5"></polygon>
                        <path d="M43.99,17.475 L43.99,7.545 C43.99,7.37499915 44.0674992,7.24750043 44.2225,7.1625 C44.3775008,7.07749958 44.5649989,7.035 44.785,7.035 C45.0050011,7.035 45.1924992,7.07749958 45.3475,7.1625 C45.5025008,7.24750043 45.58,7.37499915 45.58,7.545 L45.58,12.105 L49.24,7.26 C49.3400005,7.10999925 49.489999,7.035 49.69,7.035 C49.900001,7.035 50.104999,7.12249913 50.305,7.2975 C50.505001,7.47250087 50.605,7.659999 50.605,7.86 C50.605,7.9800006 50.5650004,8.08499955 50.485,8.175 L47.605,11.775 L51.025,16.98 C51.0850003,17.0700005 51.115,17.1649995 51.115,17.265 C51.115,17.4550009 51.017501,17.6324992 50.8225,17.7975 C50.627499,17.9625008 50.4150011,18.045 50.185,18.045 C49.9349987,18.045 49.7450006,17.945001 49.615,17.745 L46.555,13.11 L45.58,14.34 L45.58,17.475 C45.58,17.6350008 45.5025008,17.7624995 45.3475,17.8575 C45.1924992,17.9525005 45.0050011,18 44.785,18 C44.5749989,18 44.3900008,17.9525005 44.23,17.8575 C44.0699992,17.7624995 43.99,17.6350008 43.99,17.475 L43.99,17.475 Z M54.105,17.475 L54.105,7.545 C54.105,7.37499915 54.1824992,7.24750043 54.3375,7.1625 C54.4925008,7.07749958 54.6799989,7.035 54.9,7.035 C55.1200011,7.035 55.3074992,7.07749958 55.4625,7.1625 C55.6175008,7.24750043 55.695,7.37499915 55.695,7.545 L55.695,16.59 L59.595,16.59 C59.7450007,16.59 59.8624996,16.6599993 59.9475,16.8 C60.0325004,16.9400007 60.075,17.104999 60.075,17.295 C60.075,17.4850009 60.0325004,17.6499993 59.9475,17.79 C59.8624996,17.9300007 59.7450007,18 59.595,18 L54.81,18 C54.619999,18 54.4550007,17.9525005 54.315,17.8575 C54.1749993,17.7624995 54.105,17.6350008 54.105,17.475 L54.105,17.475 Z M62.975,14.745 L62.975,10.38 C62.975,9.22999425 63.2799969,8.3850027 63.89,7.845 C64.500003,7.3049973 65.3149949,7.035 66.335,7.035 C67.3550051,7.035 68.1724969,7.3049973 68.7875,7.845 C69.4025031,8.3850027 69.71,9.22999425 69.71,10.38 L69.71,14.745 C69.71,15.8950057 69.4025031,16.7399973 68.7875,17.28 C68.1724969,17.8200027 67.3550051,18.09 66.335,18.09 C65.3149949,18.09 64.500003,17.8200027 63.89,17.28 C63.2799969,16.7399973 62.975,15.8950057 62.975,14.745 L62.975,14.745 Z M64.565,14.745 C64.565,16.0350064 65.1549941,16.68 66.335,16.68 C66.9050028,16.68 67.3449984,16.5200016 67.655,16.2 C67.9650015,15.8799984 68.12,15.3950033 68.12,14.745 L68.12,10.38 C68.12,9.72999675 67.9650015,9.2450016 67.655,8.925 C67.3449984,8.6049984 66.9050028,8.445 66.335,8.445 C65.1549941,8.445 64.565,9.08999355 64.565,10.38 L64.565,14.745 Z M73.465,14.745 L73.465,10.38 C73.465,9.22999425 73.7699969,8.3850027 74.38,7.845 C74.990003,7.3049973 75.8049949,7.035 76.825,7.035 C77.8450051,7.035 78.6624969,7.3049973 79.2775,7.845 C79.8925031,8.3850027 80.2,9.22999425 80.2,10.38 L80.2,14.745 C80.2,15.8950057 79.8925031,16.7399973 79.2775,17.28 C78.6624969,17.8200027 77.8450051,18.09 76.825,18.09 C75.8049949,18.09 74.990003,17.8200027 74.38,17.28 C73.7699969,16.7399973 73.465,15.8950057 73.465,14.745 L73.465,14.745 Z M75.055,14.745 C75.055,16.0350064 75.6449941,16.68 76.825,16.68 C77.3950028,16.68 77.8349984,16.5200016 78.145,16.2 C78.4550015,15.8799984 78.61,15.3950033 78.61,14.745 L78.61,10.38 C78.61,9.72999675 78.4550015,9.2450016 78.145,8.925 C77.8349984,8.6049984 77.3950028,8.445 76.825,8.445 C75.6449941,8.445 75.055,9.08999355 75.055,10.38 L75.055,14.745 Z M84.06,17.475 L84.06,7.56 C84.06,7.3999992 84.1299993,7.27250048 84.27,7.1775 C84.4100007,7.08249953 84.574999,7.035 84.765,7.035 L90.03,7.035 C90.2000008,7.035 90.3274996,7.10249933 90.4125,7.2375 C90.4975004,7.37250068 90.54,7.53499905 90.54,7.725 C90.54,7.925001 90.4950004,8.0949993 90.405,8.235 C90.3149995,8.3750007 90.1900008,8.445 90.03,8.445 L85.65,8.445 L85.65,11.88 L87.975,11.88 C88.1350008,11.88 88.2599995,11.9424994 88.35,12.0675 C88.4400004,12.1925006 88.485,12.3449991 88.485,12.525 C88.485,12.6850008 88.4425004,12.8274994 88.3575,12.9525 C88.2724996,13.0775006 88.1450008,13.14 87.975,13.14 L85.65,13.14 L85.65,17.475 C85.65,17.6450009 85.5725008,17.7749996 85.4175,17.865 C85.2624992,17.9550005 85.0750011,18 84.855,18 C84.6449989,18 84.4600008,17.9550005 84.3,17.865 C84.1399992,17.7749996 84.06,17.6450009 84.06,17.475 L84.06,17.475 Z" id="KLOOF" fill="#16C98D"></path>
                    </g>
                </g>
            </g>
        </g>
    </g>
</svg>