<?xml version="1.0" encoding="UTF-8" standalone="no"?>
<svg width="512px" height="30px" viewBox="0 0 512 30" version="1.1" xmlns="http://www.w3.org/2000/svg" xmlns:xlink="http://www.w3.org/1999/xlink">
    <!-- Generator: Sketch 40.1 (33804) - http://www.bohemiancoding.com/sketch -->
    <title>Group 7</title>
    <desc>Created with Sketch.</desc>
    <defs></defs>
    <g id="Landing" stroke="none" stroke-width="1" fill="none" fill-rule="evenodd">
        <g id="-landing" transform="translate(-435.000000, -3254.000000)">
            <g id="Group-7" transform="translate(435.000000, 3254.000000)">
                <path d="M47.8097152,13.04 C47.7403815,13.1093337 47.663049,13.144 47.5777152,13.144 L45.4817152,13.144 C45.3323811,13.144 45.215049,13.1253335 45.1297152,13.088 C45.0443815,13.0506665 44.9483824,12.9840005 44.8417152,12.888 C44.8203818,12.8666666 44.7510491,12.7946673 44.6337152,12.672 C44.5163813,12.5493327 44.3323831,12.4400005 44.0817152,12.344 C43.8310473,12.2479995 43.5403835,12.2 43.2097152,12.2 C42.7510463,12.2 42.37505,12.2613327 42.0817152,12.384 C41.7883804,12.5066673 41.6417152,12.7173318 41.6417152,13.016 C41.6417152,13.2293344 41.732381,13.3973327 41.9137152,13.52 C42.0950495,13.6426673 42.3750467,13.7519995 42.7537152,13.848 C43.1323838,13.9440005 43.7910439,14.087999 44.7297152,14.28 C45.9350546,14.5253346 46.8203791,14.9093307 47.3857152,15.432 C47.9510514,15.9546693 48.2337152,16.7013285 48.2337152,17.672 C48.2337152,18.3760035 48.0230507,18.9919974 47.6017152,19.52 C47.1803798,20.0480026 46.593719,20.4533319 45.8417152,20.736 C45.0897115,21.0186681 44.2390533,21.16 43.2897152,21.16 C42.3723773,21.16 41.5403856,21.0000016 40.7937152,20.68 C40.0470448,20.3599984 39.460384,19.9440026 39.0337152,19.432 C38.6070464,18.9199974 38.3830487,18.3920027 38.3617152,17.848 C38.3617152,17.7519995 38.3963815,17.6693337 38.4657152,17.6 C38.5350489,17.5306663 38.6123815,17.496 38.6977152,17.496 L40.7937152,17.496 C41.0283831,17.496 41.2310477,17.5706659 41.4017152,17.72 C41.4337154,17.7520002 41.5190479,17.8453326 41.6577152,18 C41.7963826,18.1546674 42.0070471,18.2933327 42.2897152,18.416 C42.5723833,18.5386673 42.9057133,18.6 43.2897152,18.6 C44.6123885,18.6 45.2737152,18.3173362 45.2737152,17.752 C45.2737152,17.5706658 45.1803828,17.4186673 44.9937152,17.296 C44.8070476,17.1733327 44.5430503,17.0693338 44.2017152,16.984 C43.8603802,16.8986662 43.3163856,16.7760008 42.5697152,16.616 L41.8497152,16.472 C40.7617098,16.2373322 39.9617178,15.8453361 39.4497152,15.296 C38.9377127,14.7466639 38.6817152,14.0133379 38.6817152,13.096 C38.6817152,12.4773302 38.86838,11.9040026 39.2417152,11.376 C39.6150504,10.8479974 40.1457118,10.4266682 40.8337152,10.112 C41.5217187,9.79733176 42.3137107,9.64 43.2097152,9.64 C44.0737195,9.64 44.863045,9.80266504 45.5777152,10.128 C46.2923855,10.453335 46.8550465,10.8613309 47.2657152,11.352 C47.6763839,11.8426691 47.8923818,12.3226643 47.9137152,12.792 C47.9137152,12.8880005 47.8790489,12.9706663 47.8097152,13.04 L47.8097152,13.04 Z M62.0554291,20.408 C62.098096,20.5146672 62.1194291,20.5946664 62.1194291,20.648 C62.1194291,20.7440005 62.0847628,20.8266663 62.0154291,20.896 C61.9460955,20.9653337 61.8634296,21 61.7674291,21 L59.7514291,21 C59.5700949,21 59.428763,20.9600004 59.3274291,20.88 C59.2260953,20.7999996 59.1594293,20.7066672 59.1274291,20.6 L58.6794291,19.272 L54.4234291,19.272 L53.9754291,20.6 C53.943429,20.7066672 53.876763,20.7999996 53.7754291,20.88 C53.6740953,20.9600004 53.5327634,21 53.3514291,21 L51.3354291,21 C51.2394287,21 51.1567628,20.9653337 51.0874291,20.896 C51.0180955,20.8266663 50.9834291,20.7440005 50.9834291,20.648 C50.9834291,20.5946664 51.0047623,20.5146672 51.0474291,20.408 L54.5354291,10.328 C54.5887627,10.1786659 54.6740952,10.0533338 54.7914291,9.952 C54.9087631,9.85066616 55.0634282,9.8 55.2554291,9.8 L57.8474291,9.8 C58.0394301,9.8 58.1940952,9.85066616 58.3114291,9.952 C58.4287631,10.0533338 58.5140955,10.1786659 58.5674291,10.328 L62.0554291,20.408 Z M57.8474291,16.792 L56.5514291,12.952 L55.2554291,16.792 L57.8474291,16.792 Z M65.829143,20.872 C65.7438093,20.7866662 65.701143,20.6853339 65.701143,20.568 L65.701143,10.232 C65.701143,10.1146661 65.7438093,10.0133338 65.829143,9.928 C65.9144768,9.84266624 66.0158091,9.8 66.133143,9.8 L68.229143,9.8 C68.346477,9.8 68.4478093,9.84266624 68.533143,9.928 C68.6184768,10.0133338 68.661143,10.1146661 68.661143,10.232 L68.661143,20.568 C68.661143,20.6853339 68.6184768,20.7866662 68.533143,20.872 C68.4478093,20.9573338 68.346477,21 68.229143,21 L66.133143,21 C66.0158091,21 65.9144768,20.9573338 65.829143,20.872 L65.829143,20.872 Z M81.330857,18.568 C81.4161907,18.6533338 81.458857,18.7546661 81.458857,18.872 L81.458857,20.568 C81.458857,20.6853339 81.4161907,20.7866662 81.330857,20.872 C81.2455232,20.9573338 81.1441909,21 81.026857,21 L73.618857,21 C73.501523,21 73.4001907,20.9573338 73.314857,20.872 C73.2295232,20.7866662 73.186857,20.6853339 73.186857,20.568 L73.186857,10.232 C73.186857,10.1146661 73.2295232,10.0133338 73.314857,9.928 C73.4001907,9.84266624 73.501523,9.8 73.618857,9.8 L75.714857,9.8 C75.8321909,9.8 75.9335232,9.84266624 76.018857,9.928 C76.1041907,10.0133338 76.146857,10.1146661 76.146857,10.232 L76.146857,18.44 L81.026857,18.44 C81.1441909,18.44 81.2455232,18.4826662 81.330857,18.568 L81.330857,18.568 Z M93.8805709,13.04 C93.8112372,13.1093337 93.7339046,13.144 93.6485709,13.144 L91.5525709,13.144 C91.4032368,13.144 91.2859046,13.1253335 91.2005709,13.088 C91.1152371,13.0506665 91.0192381,12.9840005 90.9125709,12.888 C90.8912374,12.8666666 90.8219048,12.7946673 90.7045709,12.672 C90.5872369,12.5493327 90.4032388,12.4400005 90.1525709,12.344 C89.9019029,12.2479995 89.6112392,12.2 89.2805709,12.2 C88.8219019,12.2 88.4459057,12.2613327 88.1525709,12.384 C87.8592361,12.5066673 87.7125709,12.7173318 87.7125709,13.016 C87.7125709,13.2293344 87.8032366,13.3973327 87.9845709,13.52 C88.1659051,13.6426673 88.4459023,13.7519995 88.8245709,13.848 C89.2032394,13.9440005 89.8618995,14.087999 90.8005709,14.28 C92.0059102,14.5253346 92.8912347,14.9093307 93.4565709,15.432 C94.021907,15.9546693 94.3045709,16.7013285 94.3045709,17.672 C94.3045709,18.3760035 94.0939063,18.9919974 93.6725709,19.52 C93.2512354,20.0480026 92.6645746,20.4533319 91.9125709,20.736 C91.1605671,21.0186681 90.3099089,21.16 89.3605709,21.16 C88.4432329,21.16 87.6112413,21.0000016 86.8645709,20.68 C86.1179005,20.3599984 85.5312397,19.9440026 85.1045709,19.432 C84.6779021,18.9199974 84.4539043,18.3920027 84.4325709,17.848 C84.4325709,17.7519995 84.4672372,17.6693337 84.5365709,17.6 C84.6059045,17.5306663 84.6832371,17.496 84.7685709,17.496 L86.8645709,17.496 C87.0992387,17.496 87.3019033,17.5706659 87.4725709,17.72 C87.504571,17.7520002 87.5899035,17.8453326 87.7285709,18 C87.8672382,18.1546674 88.0779028,18.2933327 88.3605709,18.416 C88.6432389,18.5386673 88.9765689,18.6 89.3605709,18.6 C90.6832441,18.6 91.3445709,18.3173362 91.3445709,17.752 C91.3445709,17.5706658 91.2512385,17.4186673 91.0645709,17.296 C90.8779033,17.1733327 90.6139059,17.0693338 90.2725709,16.984 C89.9312358,16.8986662 89.3872413,16.7760008 88.6405709,16.616 L87.9205709,16.472 C86.8325654,16.2373322 86.0325734,15.8453361 85.5205709,15.296 C85.0085683,14.7466639 84.7525709,14.0133379 84.7525709,13.096 C84.7525709,12.4773302 84.9392357,11.9040026 85.3125709,11.376 C85.6859061,10.8479974 86.2165674,10.4266682 86.9045709,10.112 C87.5925743,9.79733176 88.3845664,9.64 89.2805709,9.64 C90.1445752,9.64 90.9339006,9.80266504 91.6485709,10.128 C92.3632411,10.453335 92.9259021,10.8613309 93.3365709,11.352 C93.7472396,11.8426691 93.9632374,12.3226643 93.9845709,12.792 C93.9845709,12.8880005 93.9499045,12.9706663 93.8805709,13.04 L93.8805709,13.04 Z" id="SAILS" fill-opacity="0.5" fill="#2A3754"></path>
                <g id="sails" fill="#28A3B2">
                    <g id="Group">
                        <path d="M2.85239413,29.9219834 C2.85239413,29.9219834 -8.56545648,11.7528751 14.9227751,0.0535007448 L14.9227751,29.9219834 L2.85239413,29.9219834" id="Shape"></path>
                        <path d="M18.5592935,29.9219834 L18.5592935,11.4092445 C18.5592935,11.4092445 22.3081763,17.527176 29.9268866,29.9219834 L18.5592935,29.9219834" id="Shape"></path>
                    </g>
                </g>
                <path d="M255.453715,10.72 C256.243053,11.3333364 256.637715,12.2479939 256.637715,13.464 C256.637715,15.0106744 256.003055,16.0773304 254.733715,16.664 L256.717715,20.472 C256.749715,20.5360003 256.765715,20.5946664 256.765715,20.648 C256.765715,20.7440005 256.731049,20.8266663 256.661715,20.896 C256.592382,20.9653337 256.509716,21 256.413715,21 L254.237715,21 C254.045714,21 253.901716,20.9600004 253.805715,20.88 C253.709715,20.7999996 253.629716,20.6960006 253.565715,20.568 L251.789715,17.144 L250.317715,17.144 L250.317715,20.568 C250.317715,20.6853339 250.275049,20.7866662 250.189715,20.872 C250.104381,20.9573338 250.003049,21 249.885715,21 L247.789715,21 C247.672381,21 247.571049,20.9573338 247.485715,20.872 C247.400381,20.7866662 247.357715,20.6853339 247.357715,20.568 L247.357715,10.232 C247.357715,10.1146661 247.400381,10.0133338 247.485715,9.928 C247.571049,9.84266624 247.672381,9.8 247.789715,9.8 L252.125715,9.8 C253.555056,9.8 254.664378,10.1066636 255.453715,10.72 L255.453715,10.72 Z M252.125715,14.648 C253.160387,14.648 253.677715,14.2533373 253.677715,13.464 C253.677715,12.6746627 253.160387,12.28 252.125715,12.28 L250.317715,12.28 L250.317715,14.648 L252.125715,14.648 Z M263.723429,16.648 L268.299429,16.648 C268.416763,16.648 268.518095,16.6053338 268.603429,16.52 C268.688763,16.4346662 268.731429,16.3333339 268.731429,16.216 L268.731429,14.52 C268.731429,14.4026661 268.688763,14.3013338 268.603429,14.216 C268.518095,14.1306662 268.416763,14.088 268.299429,14.088 L263.723429,14.088 L263.723429,12.36 L268.651429,12.36 C268.768763,12.36 268.870095,12.3173338 268.955429,12.232 C269.040763,12.1466662 269.083429,12.0453339 269.083429,11.928 L269.083429,10.232 C269.083429,10.1146661 269.040763,10.0133338 268.955429,9.928 C268.870095,9.84266624 268.768763,9.8 268.651429,9.8 L261.195429,9.8 C261.078095,9.8 260.976763,9.84266624 260.891429,9.928 C260.806095,10.0133338 260.763429,10.1146661 260.763429,10.232 L260.763429,20.568 C260.763429,20.6853339 260.806095,20.7866662 260.891429,20.872 C260.976763,20.9573338 261.078095,21 261.195429,21 L268.779429,21 C268.896763,21 268.998095,20.9573338 269.083429,20.872 C269.168763,20.7866662 269.211429,20.6853339 269.211429,20.568 L269.211429,18.872 C269.211429,18.7546661 269.168763,18.6533338 269.083429,18.568 C268.998095,18.4826662 268.896763,18.44 268.779429,18.44 L263.723429,18.44 L263.723429,16.648 Z M283.097143,15.416 C283.097143,15.5866675 283.086476,15.9599971 283.065143,16.536 C283.033143,17.410671 282.806478,18.1839966 282.385143,18.856 C281.963808,19.5280034 281.385147,20.0533314 280.649143,20.432 C279.913139,20.8106686 279.059815,21 278.089143,21 L273.769143,21 C273.651809,21 273.550477,20.9573338 273.465143,20.872 C273.379809,20.7866662 273.337143,20.6853339 273.337143,20.568 L273.337143,10.232 C273.337143,10.1146661 273.379809,10.0133338 273.465143,9.928 C273.550477,9.84266624 273.651809,9.8 273.769143,9.8 L278.009143,9.8 C278.979815,9.8 279.841139,9.98933144 280.593143,10.368 C281.345147,10.7466686 281.937141,11.2746633 282.369143,11.952 C282.801145,12.6293367 283.033143,13.3999957 283.065143,14.264 C283.086476,14.8613363 283.097143,15.2453325 283.097143,15.416 L283.097143,15.416 Z M276.297143,12.36 L276.297143,18.44 L278.009143,18.44 C279.35315,18.44 280.051809,17.8266728 280.105143,16.6 C280.126476,15.9813302 280.137143,15.576001 280.137143,15.384 C280.137143,15.1706656 280.126476,14.7760029 280.105143,14.2 C280.073143,13.591997 279.873145,13.1333349 279.505143,12.824 C279.137141,12.5146651 278.611813,12.36 277.929143,12.36 L276.297143,12.36 Z M296.678857,9.928 C296.764191,10.0133338 296.806857,10.1146661 296.806857,10.232 L296.806857,16.616 C296.806857,17.5760048 296.604192,18.3973299 296.198857,19.08 C295.793522,19.7626701 295.225527,20.2799982 294.494857,20.632 C293.764187,20.9840018 292.913528,21.16 291.942857,21.16 C290.961519,21.16 290.105527,20.9840018 289.374857,20.632 C288.644187,20.2799982 288.078859,19.7626701 287.678857,19.08 C287.278855,18.3973299 287.078857,17.5760048 287.078857,16.616 L287.078857,10.232 C287.078857,10.1146661 287.121523,10.0133338 287.206857,9.928 C287.292191,9.84266624 287.393523,9.8 287.510857,9.8 L289.606857,9.8 C289.724191,9.8 289.825523,9.84266624 289.910857,9.928 C289.996191,10.0133338 290.038857,10.1146661 290.038857,10.232 L290.038857,16.552 C290.038857,17.2026699 290.201522,17.7066649 290.526857,18.064 C290.852192,18.4213351 291.324187,18.6 291.942857,18.6 C292.561527,18.6 293.033522,18.4213351 293.358857,18.064 C293.684192,17.7066649 293.846857,17.2026699 293.846857,16.552 L293.846857,10.232 C293.846857,10.1146661 293.889523,10.0133338 293.974857,9.928 C294.060191,9.84266624 294.161523,9.8 294.278857,9.8 L296.374857,9.8 C296.492191,9.8 296.593523,9.84266624 296.678857,9.928 L296.678857,9.928 Z M303.716571,20.632 C303.631237,20.7600006 303.545905,20.853333 303.460571,20.912 C303.375237,20.970667 303.241905,21 303.060571,21 L300.628571,21 C300.53257,21 300.449905,20.9653337 300.380571,20.896 C300.311237,20.8266663 300.276571,20.7440005 300.276571,20.648 C300.276571,20.5839997 300.292571,20.5253336 300.324571,20.472 L304.020571,15.304 L300.484571,10.328 C300.452571,10.2639997 300.436571,10.2053336 300.436571,10.152 C300.436571,10.0559995 300.471237,9.97333368 300.540571,9.904 C300.609905,9.83466632 300.69257,9.8 300.788571,9.8 L303.204571,9.8 C303.385905,9.8 303.521904,9.83733296 303.612571,9.912 C303.703238,9.98666704 303.791237,10.0826661 303.876571,10.2 L305.812571,12.904 L307.684571,10.2 C307.769905,10.0826661 307.857904,9.98666704 307.948571,9.912 C308.039238,9.83733296 308.175237,9.8 308.356571,9.8 L310.804571,9.8 C310.900571,9.8 310.983237,9.83466632 311.052571,9.904 C311.121905,9.97333368 311.156571,10.0559995 311.156571,10.152 C311.156571,10.2053336 311.140571,10.2639997 311.108571,10.328 L307.556571,15.368 L311.220571,20.472 C311.252571,20.5253336 311.268571,20.5839997 311.268571,20.648 C311.268571,20.7440005 311.233905,20.8266663 311.164571,20.896 C311.095237,20.9653337 311.012571,21 310.916571,21 L308.484571,21 C308.303237,21 308.169905,20.970667 308.084571,20.912 C307.999237,20.853333 307.913905,20.7600006 307.828571,20.632 L305.764571,17.752 L303.716571,20.632 Z" id="REDUX" fill-opacity="0.5" fill="#2A3754"></path>
                <path d="M457.525715,9.72 C458.315053,10.3333364 458.709715,11.2479939 458.709715,12.464 C458.709715,14.0106744 458.075055,15.0773304 456.805715,15.664 L458.789715,19.472 C458.821715,19.5360003 458.837715,19.5946664 458.837715,19.648 C458.837715,19.7440005 458.803049,19.8266663 458.733715,19.896 C458.664382,19.9653337 458.581716,20 458.485715,20 L456.309715,20 C456.117714,20 455.973716,19.9600004 455.877715,19.88 C455.781715,19.7999996 455.701716,19.6960006 455.637715,19.568 L453.861715,16.144 L452.389715,16.144 L452.389715,19.568 C452.389715,19.6853339 452.347049,19.7866662 452.261715,19.872 C452.176381,19.9573338 452.075049,20 451.957715,20 L449.861715,20 C449.744381,20 449.643049,19.9573338 449.557715,19.872 C449.472381,19.7866662 449.429715,19.6853339 449.429715,19.568 L449.429715,9.232 C449.429715,9.11466608 449.472381,9.01333376 449.557715,8.928 C449.643049,8.84266624 449.744381,8.8 449.861715,8.8 L454.197715,8.8 C455.627056,8.8 456.736378,9.1066636 457.525715,9.72 L457.525715,9.72 Z M454.197715,13.648 C455.232387,13.648 455.749715,13.2533373 455.749715,12.464 C455.749715,11.6746627 455.232387,11.28 454.197715,11.28 L452.389715,11.28 L452.389715,13.648 L454.197715,13.648 Z M465.795429,15.648 L470.371429,15.648 C470.488763,15.648 470.590095,15.6053338 470.675429,15.52 C470.760763,15.4346662 470.803429,15.3333339 470.803429,15.216 L470.803429,13.52 C470.803429,13.4026661 470.760763,13.3013338 470.675429,13.216 C470.590095,13.1306662 470.488763,13.088 470.371429,13.088 L465.795429,13.088 L465.795429,11.36 L470.723429,11.36 C470.840763,11.36 470.942095,11.3173338 471.027429,11.232 C471.112763,11.1466662 471.155429,11.0453339 471.155429,10.928 L471.155429,9.232 C471.155429,9.11466608 471.112763,9.01333376 471.027429,8.928 C470.942095,8.84266624 470.840763,8.8 470.723429,8.8 L463.267429,8.8 C463.150095,8.8 463.048763,8.84266624 462.963429,8.928 C462.878095,9.01333376 462.835429,9.11466608 462.835429,9.232 L462.835429,19.568 C462.835429,19.6853339 462.878095,19.7866662 462.963429,19.872 C463.048763,19.9573338 463.150095,20 463.267429,20 L470.851429,20 C470.968763,20 471.070095,19.9573338 471.155429,19.872 C471.240763,19.7866662 471.283429,19.6853339 471.283429,19.568 L471.283429,17.872 C471.283429,17.7546661 471.240763,17.6533338 471.155429,17.568 C471.070095,17.4826662 470.968763,17.44 470.851429,17.44 L465.795429,17.44 L465.795429,15.648 Z M485.537143,19.408 C485.57981,19.5146672 485.601143,19.5946664 485.601143,19.648 C485.601143,19.7440005 485.566477,19.8266663 485.497143,19.896 C485.427809,19.9653337 485.345144,20 485.249143,20 L483.233143,20 C483.051809,20 482.910477,19.9600004 482.809143,19.88 C482.707809,19.7999996 482.641143,19.7066672 482.609143,19.6 L482.161143,18.272 L477.905143,18.272 L477.457143,19.6 C477.425143,19.7066672 477.358477,19.7999996 477.257143,19.88 C477.155809,19.9600004 477.014477,20 476.833143,20 L474.817143,20 C474.721143,20 474.638477,19.9653337 474.569143,19.896 C474.499809,19.8266663 474.465143,19.7440005 474.465143,19.648 C474.465143,19.5946664 474.486476,19.5146672 474.529143,19.408 L478.017143,9.328 C478.070477,9.17866592 478.155809,9.05333384 478.273143,8.952 C478.390477,8.85066616 478.545142,8.8 478.737143,8.8 L481.329143,8.8 C481.521144,8.8 481.675809,8.85066616 481.793143,8.952 C481.910477,9.05333384 481.995809,9.17866592 482.049143,9.328 L485.537143,19.408 Z M481.329143,15.792 L480.033143,11.952 L478.737143,15.792 L481.329143,15.792 Z M492.022857,17.088 C492.337525,17.429335 492.830854,17.6 493.502857,17.6 C494.14286,17.6 494.606856,17.4773346 494.894857,17.232 C495.182858,16.9866654 495.385523,16.6880018 495.502857,16.336 C495.566857,16.1546658 495.630857,16.0320003 495.694857,15.968 C495.758857,15.9039997 495.876189,15.872 496.046857,15.872 L498.142857,15.872 C498.238857,15.872 498.321523,15.9066663 498.390857,15.976 C498.460191,16.0453337 498.494857,16.1279995 498.494857,16.224 C498.48419,16.9386702 498.257526,17.5973303 497.814857,18.2 C497.372188,18.8026697 496.772194,19.2799982 496.014857,19.632 C495.25752,19.9840018 494.420195,20.16 493.502857,20.16 C492.510852,20.16 491.646861,19.9653353 490.910857,19.576 C490.174853,19.1866647 489.604192,18.6640033 489.198857,18.008 C488.793522,17.3519967 488.569524,16.624004 488.526857,15.824 C488.505524,15.3119974 488.494857,14.8906683 488.494857,14.56 C488.494857,14.1653314 488.505524,13.6373366 488.526857,12.976 C488.558857,12.175996 488.777522,11.4480033 489.182857,10.792 C489.588192,10.1359967 490.16152,9.61333528 490.902857,9.224 C491.644194,8.83466472 492.510852,8.64 493.502857,8.64 C494.420195,8.64 495.25752,8.81599824 496.014857,9.168 C496.772194,9.52000176 497.372188,9.99733032 497.814857,10.6 C498.257526,11.2026697 498.48419,11.8613298 498.494857,12.576 C498.494857,12.6720005 498.460191,12.7546663 498.390857,12.824 C498.321523,12.8933337 498.238857,12.928 498.142857,12.928 L496.046857,12.928 C495.876189,12.928 495.758857,12.8960003 495.694857,12.832 C495.630857,12.7679997 495.566857,12.6453342 495.502857,12.464 C495.385523,12.1119982 495.182858,11.8133346 494.894857,11.568 C494.606856,11.3226654 494.14286,11.2 493.502857,11.2 C492.830854,11.2 492.337525,11.370665 492.022857,11.712 C491.708189,12.053335 491.529524,12.5013306 491.486857,13.056 C491.465524,13.4186685 491.454857,13.866664 491.454857,14.4 C491.454857,14.9120026 491.465524,15.3599981 491.486857,15.744 C491.529524,16.2986694 491.708189,16.746665 492.022857,17.088 L492.022857,17.088 Z M510.956571,8.928 C511.041905,9.01333376 511.084571,9.11466608 511.084571,9.232 L511.084571,10.928 C511.084571,11.0453339 511.041905,11.1466662 510.956571,11.232 C510.871237,11.3173338 510.769905,11.36 510.652571,11.36 L507.836571,11.36 L507.836571,19.568 C507.836571,19.6853339 507.793905,19.7866662 507.708571,19.872 C507.623237,19.9573338 507.521905,20 507.404571,20 L505.308571,20 C505.191237,20 505.089905,19.9573338 505.004571,19.872 C504.919237,19.7866662 504.876571,19.6853339 504.876571,19.568 L504.876571,11.36 L502.060571,11.36 C501.943237,11.36 501.841905,11.3173338 501.756571,11.232 C501.671237,11.1466662 501.628571,11.0453339 501.628571,10.928 L501.628571,9.232 C501.628571,9.11466608 501.671237,9.01333376 501.756571,8.928 C501.841905,8.84266624 501.943237,8.8 502.060571,8.8 L510.652571,8.8 C510.769905,8.8 510.871237,8.84266624 510.956571,8.928 L510.956571,8.928 Z" id="REACT" fill-opacity="0.5" fill="#2A3754"></path>
                <g id="react" transform="translate(400.000000, 0.000000)" fill="#00D8FF">
                    <path d="M23.8446213,8.98832742e-15 L23.7361545,8.98832742e-15 C23.1456129,0.0118823108 22.5189158,0.150905347 21.8801668,0.383798638 C20.5966428,0.84839699 19.204652,1.71045864 17.7885575,2.92601903 C17.5113645,3.16425936 17.2281456,3.41972904 16.9449267,3.68708104 C16.7581228,3.50884638 16.5713188,3.34249402 16.3845149,3.17614167 C14.8840573,1.86433456 13.4077034,0.94167313 12.0578942,0.444398423 C11.3829895,0.196058128 10.7261627,0.0469351276 10.1115174,0.0326763547 C9.49687217,0.0178234662 8.92440843,0.136646574 8.42425589,0.424198495 C7.44805457,0.978508293 6.91777237,2.07049265 6.68878687,3.39596442 C6.45377544,4.72915969 6.51403478,6.34515396 6.87559083,8.16314751 C6.94790204,8.52555799 7.03226511,8.89390962 7.12868006,9.27414357 C6.6948128,9.39296668 6.27299741,9.5236721 5.87528576,9.66031867 C4.11993116,10.2603754 2.70022108,11.0208433 1.68063302,11.8763696 C0.661044973,12.7378372 0,13.7359513 0,14.8231827 C0,15.9460611 0.694790204,16.9857633 1.76921426,17.8888189 C2.84363831,18.7978157 4.34289072,19.6058128 6.19466027,20.223693 C6.48993104,20.3246926 6.79122775,20.4197511 7.10457632,20.5088684 C7.00213544,20.912867 6.91174643,21.3109244 6.83943522,21.6970995 C6.49595698,23.4972696 6.45377544,25.0894992 6.6948128,26.3906123 C6.9418761,27.6917253 7.49023611,28.7551921 8.44835963,29.2958372 C9.43058689,29.860247 10.6900071,29.783012 12.0277645,29.3196019 C13.3594959,28.8561917 14.8117461,27.9769007 16.282074,26.7054935 C16.5170854,26.5034942 16.7520968,26.2896126 16.9871083,26.0638487 C17.2944309,26.3549653 17.6017536,26.6341996 17.9090762,26.8896693 C19.3131188,28.0838415 20.6870318,28.9156033 21.952478,29.3552488 C23.2179241,29.7948943 24.4291369,29.860247 25.3812345,29.3136607 C26.3694877,28.7492509 26.9298996,27.6382549 27.1890147,26.265848 C27.4481299,24.8934411 27.3999224,23.2120941 27.0202886,21.3228067 C26.9600292,21.0316901 26.893744,20.7286912 26.8214328,20.4316334 C27.0323404,20.3662807 27.2432481,20.300928 27.4481299,20.2355753 C29.3523251,19.6176951 30.9009901,18.8215803 32.015788,17.9185247 C33.1305858,17.015469 33.8536979,15.9698257 33.8536979,14.8231827 C33.8536979,13.7181278 33.1607154,12.7200137 32.1122029,11.852605 C31.0636904,10.9911375 29.6114402,10.2306696 27.8337897,9.63061289 C27.4842855,9.51178978 27.1227295,9.39890783 26.7491215,9.29196704 C26.8093809,9.04837966 26.8696402,8.80479229 26.9178477,8.56120492 C27.3215853,6.62438826 27.3938965,4.9014532 27.1588851,3.49755818 C26.9178477,2.09425728 26.3634618,0.953555441 25.3571308,0.380828061 C24.9051857,0.121793686 24.3869554,0.00415880878 23.8446213,-1.77635684e-15 L23.8446213,8.98832742e-15 Z M23.7421804,1.43478903 C24.1218143,1.42528318 24.423111,1.49420058 24.6340187,1.61599427 C25.0919897,1.87443453 25.5318828,2.56954971 25.7307387,3.72926324 C25.9295945,4.89551204 25.8753611,6.46397707 25.4957272,8.27008831 C25.4475198,8.48991106 25.3993123,8.70973381 25.3450789,8.93549771 C23.9470622,8.61467532 22.4225008,8.3770291 20.8196024,8.22850022 C19.8976345,6.93332834 18.933485,5.74509727 17.9572837,4.70539507 C18.2224248,4.46002535 18.475514,4.22237914 18.7346292,4.00255639 C20.0543087,2.87314275 21.3257808,2.10376312 22.3803193,1.72234095 C22.9045756,1.53162986 23.3625466,1.44429488 23.7421804,1.43478903 L23.7421804,1.43478903 Z M9.95484316,1.46746538 L10.0994656,1.46746538 C10.5032032,1.47875358 10.9913038,1.57440618 11.5517157,1.77997016 C12.6725394,2.19228634 14.0283746,3.02167163 15.4203654,4.24554964 C15.5890916,4.39407853 15.7578177,4.54854857 15.9265439,4.71133623 C14.9503425,5.74509727 13.9801671,6.92738719 13.0461474,8.22255906 C11.4492748,8.37108795 9.92471349,8.60873417 8.53272271,8.91767425 C8.4423337,8.56714608 8.36399655,8.22255906 8.29771128,7.88985436 C7.96025897,6.20256623 7.92410336,4.72915969 8.11090732,3.63955179 C8.30373721,2.55053801 8.71952667,1.90295207 9.14736799,1.65817647 C9.34622381,1.5447004 9.61739085,1.47518888 9.95484316,1.46687127 L9.95484316,1.46746538 Z M16.9449267,5.73321495 C17.6138054,6.44021245 18.2766582,7.23632727 18.933485,8.0977948 C18.2766582,8.06808902 17.6017536,8.05026556 16.9268489,8.05026556 C16.2579702,8.05026556 15.5951175,8.06808902 14.9382907,8.0977948 C15.6011434,7.23632727 16.276048,6.4461536 16.9449267,5.73321495 L16.9449267,5.73321495 Z M16.9268489,9.47614285 C17.9813874,9.47614285 19.0118221,9.51773094 20.0121272,9.58902481 C20.578565,10.4089042 21.126925,11.2703718 21.6511813,12.1615451 C22.1754375,13.0527184 22.6635382,13.9498329 23.1034314,14.835065 C22.6635382,15.7321795 22.1814635,16.6411763 21.6511813,17.5382907 C21.126925,18.4354052 20.5845909,19.2968727 20.0241791,20.1226933 C19.0178481,20.1939872 17.9813874,20.2296341 16.9268489,20.2296341 C15.8843623,20.2296341 14.8599535,20.1939872 13.8596485,20.1345756 C13.2932107,19.308755 12.7388247,18.4472875 12.2085425,17.550173 C11.6782603,16.6530586 11.1961856,15.7500029 10.7623183,14.8588296 C11.1961856,13.9617152 11.6782603,13.0646007 12.2025166,12.1674862 C12.7267729,11.2703718 13.2811588,10.4089042 13.8475966,9.58902481 C14.8479017,9.51773094 15.8783364,9.47614285 16.9268489,9.47614285 L16.9268489,9.47614285 Z M11.985583,9.77320062 C11.6300528,10.3197869 11.2865746,10.8782555 10.9491223,11.4545476 C10.61167,12.0308397 10.2983214,12.6071317 9.9970247,13.1774827 C9.56918338,12.1912509 9.21365326,11.2228425 8.91838249,10.2960223 C9.88253195,10.0821407 10.9069407,9.9098472 11.985583,9.77320062 L11.985583,9.77320062 Z M21.8681149,9.77914178 C22.952783,9.9098472 23.9892437,10.094023 24.9533932,10.3079046 C24.6641483,11.2347248 24.2965664,12.197192 23.868725,13.1834238 C23.5614024,12.6071317 23.236002,12.0248985 22.8985496,11.4486064 C22.5610973,10.8782555 22.2176191,10.3197869 21.8681149,9.77914178 L21.8681149,9.77914178 Z M7.51433984,10.6465505 C7.93615523,11.9951927 8.49054117,13.4151289 9.16544579,14.8588296 C8.4784893,16.326295 7.91807743,17.7640546 7.49023611,19.1305204 C7.2070172,19.0532853 6.92982423,18.964168 6.6586572,18.8750507 C4.94729191,18.2987586 3.59627748,17.5561142 2.70986257,16.8075286 C1.82284507,16.058943 1.44622419,15.3341221 1.44622419,14.8231827 C1.44622419,14.3300668 1.79030503,13.6646574 2.62067875,12.9636011 C3.45044987,12.2625447 4.72433235,11.5614884 6.35133456,11.0030198 C6.71891654,10.8782555 7.11060226,10.7594324 7.51433984,10.6465505 L7.51433984,10.6465505 Z M26.3634618,10.6643739 C26.70694,10.7653736 27.0443923,10.8723144 27.3637668,10.9792552 C29.0148728,11.5377238 30.3285264,12.2387801 31.190235,12.9517188 C32.0459176,13.6587162 32.4074737,14.336008 32.4074737,14.8231827 C32.4074737,15.3400632 32.0218139,16.0648842 31.099846,16.8134698 C30.1718521,17.5620553 28.7678095,18.3046998 26.9961848,18.886933 C26.8093809,18.9463445 26.6225769,19.0057561 26.429747,19.0592265 C25.9958798,17.7046431 25.4113642,16.2787658 24.7123558,14.835065 C25.3872604,13.4091877 25.9416464,12.0070751 26.3634618,10.6643739 L26.3634618,10.6643739 Z M16.9268489,11.8466639 C15.2604685,11.8489546 13.9101793,13.1802465 13.9078559,14.8231827 C13.9068565,16.4684386 15.258117,17.8033475 16.9268489,17.8056427 C17.7292809,17.8061159 18.4989852,17.4920453 19.0663904,16.932623 C19.6337955,16.3732006 19.9523478,15.6143253 19.9518679,14.8231827 C19.9495398,13.1779281 18.5955822,11.8456784 16.9268489,11.8466639 L16.9268489,11.8466639 Z M23.8868028,16.4867062 C24.332722,17.4967026 24.7183817,18.4829344 25.0196784,19.421637 C24.0374512,19.6414597 22.9768868,19.8196944 21.8681149,19.9503998 C22.2176191,19.3978724 22.5671233,18.8275214 22.9045756,18.2512294 C23.2480538,17.663055 23.5734543,17.0748806 23.8868028,16.4867062 L23.8868028,16.4867062 Z M9.9970247,16.5342355 C10.2983214,17.1105275 10.6176959,17.6868196 10.9551482,18.2631117 C11.2986265,18.8453449 11.6541566,19.4156958 12.0157126,19.9741644 C10.9189926,19.8553413 9.87048008,19.688989 8.90030469,19.4810485 C9.19557546,18.5364048 9.56315744,17.550173 9.9970247,16.5342355 L9.9970247,16.5342355 Z M25.4173901,20.7940439 C25.4897013,21.067337 25.5499607,21.3406302 25.6041941,21.602041 C25.9536982,23.3487407 25.977802,24.8756176 25.7668943,26.0044372 C25.5559866,27.1391978 25.1040415,27.8224307 24.6581224,28.0779004 C24.2242551,28.3274289 23.4649874,28.369017 22.4345527,28.0125477 C21.404118,27.6501372 20.1507237,26.9134339 18.8491219,25.808379 C18.565903,25.5707328 18.2826841,25.3152631 17.9994652,25.04197 C18.9696406,23.9963266 19.9217382,22.7962132 20.8376802,21.4891591 C22.4646824,21.3465713 24.0073215,21.1148663 25.4173901,20.7940439 L25.4173901,20.7940439 Z M8.50861897,20.8593966 C9.91868755,21.1683367 11.4553008,21.3822183 13.0702511,21.5069825 C14.0102968,22.8140367 14.9925241,24.0082089 15.9747513,25.0479111 C15.7578177,25.2558516 15.54691,25.4519097 15.3299764,25.6360855 C13.9741412,26.8064931 12.6424098,27.5907256 11.5456898,27.9709596 C10.4429438,28.3571347 9.61739085,28.3155466 9.17147172,28.0600769 C8.73760447,27.8164896 8.32181501,27.1867271 8.11693325,26.1292014 C7.91807743,25.0716758 7.94218116,23.6339162 8.26155567,21.9644515 C8.32784095,21.6079822 8.41220403,21.2396305 8.50861897,20.8593966 L8.50861897,20.8593966 Z M18.9696406,21.6079822 C18.3128138,22.4872732 17.649961,23.2952703 16.9871083,24.0200913 C16.3061777,23.2952703 15.6192212,22.4872732 14.9503425,21.6198645 C15.6011434,21.6436291 16.2579702,21.6555114 16.9268489,21.6555114 C17.6138054,21.6555114 18.294736,21.6376879 18.9696406,21.6079822 L18.9696406,21.6079822 Z" id="Shape"></path>
                </g>
                <g id="redux" transform="translate(200.000000, 0.000000)" fill="#764ABC">
                    <path d="M22.1726191,20.868781 C23.3535381,20.7486154 24.2494077,19.7472343 24.2086864,18.545577 C24.167965,17.3439198 23.1499314,16.3825939 21.928291,16.3825939 L21.8468484,16.3825939 C20.5844866,16.4226492 19.6071744,17.4640855 19.6478957,18.705798 C19.6886171,19.3066266 19.9329451,19.8273448 20.2994372,20.187842 C18.9149115,22.8715431 16.7974016,24.83425 13.6211366,26.4765149 C11.4629054,27.5980617 9.22323139,27.9986141 6.9835574,27.7182274 C5.15109687,27.4778959 3.7258498,26.6767911 2.82998021,25.3549682 C1.52689716,23.3922612 1.40473312,21.2693335 2.50420945,19.1464056 C3.277915,17.6243064 4.49955535,16.5027596 5.27326091,15.9419862 C5.11037554,15.4212681 4.86604746,14.5400528 4.74388342,13.8991689 C-1.16071161,18.1049694 -0.549891434,23.7928137 1.24184775,26.4765149 C2.58565214,28.479277 5.31398226,29.7209895 8.32736179,29.7209895 C9.1417887,29.7209895 9.9562156,29.640879 10.7706425,29.4406028 C15.9829746,28.4392217 19.9329451,25.3950234 22.1726191,20.868781 L22.1726191,20.868781 Z M29.3395759,15.9019311 C26.2447536,12.3370145 21.683963,10.3743077 16.4716308,10.3743077 L15.8200893,10.3743077 C15.4535971,9.65331331 14.6798916,9.17265041 13.8247434,9.17265041 L13.7433008,9.17265041 C12.480939,9.21270564 11.5036267,10.2541419 11.5443481,11.4958544 C11.5850694,12.6975117 12.603103,13.6588375 13.8247434,13.6588375 L13.9061861,13.6588375 C14.8020556,13.6187823 15.5757613,13.0580089 15.901532,12.2969593 L16.6345163,12.2969593 C19.7293384,12.2969593 22.6612753,13.1781746 25.3081628,14.90055 C27.34423,16.222373 28.8101984,17.9447484 29.6246253,20.0276209 C30.3168881,21.7099411 30.2761668,23.3522061 29.5431826,24.7541395 C28.4029849,26.8770674 26.4890818,28.0386693 23.9643583,28.0386693 C22.3355045,28.0386693 20.7880934,27.5580064 19.9736665,27.1975093 C19.5257318,27.5980617 18.7113048,28.2389455 18.141206,28.639498 C19.8922238,29.4406028 21.683963,29.8812105 23.3942595,29.8812105 C27.3035086,29.8812105 30.1947241,27.7582827 31.2942004,25.6353548 C32.4751194,23.3121508 32.3936768,19.3066266 29.3395759,15.9019311 L29.3395759,15.9019311 Z M8.65313255,21.5497201 C8.6938539,22.7513774 9.71188753,23.7127033 10.9335279,23.7127033 L11.0149706,23.7127033 C12.2773323,23.672648 13.2546445,22.6312116 13.2139233,21.3894992 C13.1732019,20.187842 12.1551682,19.2265161 10.9335279,19.2265161 L10.8520852,19.2265161 C10.7706425,19.2265161 10.6484785,19.2265161 10.5670358,19.2665714 C8.89746063,16.5428149 8.20519776,13.578727 8.44952583,10.3743077 C8.61241121,7.97099314 9.42683811,5.88812056 10.8520852,4.16574516 C12.0330042,2.68370121 14.3133995,1.96270686 15.8608106,1.92265161 C20.1772733,1.84254113 22.0097338,7.12983306 22.1318978,9.25276088 C22.6612753,9.37292661 23.5571449,9.65331331 24.167965,9.85358951 C23.6793089,3.36464032 19.6071744,0 15.6979253,0 C12.0330042,0 8.65313255,2.60359072 7.30932816,6.44889395 C5.43614629,11.5759649 6.65778665,16.5027596 8.93818198,20.3881182 C8.73457525,20.6685048 8.61241121,21.1091125 8.65313255,21.5497201 L8.65313255,21.5497201 Z" id="Shape"></path>
                </g>
            </g>
        </g>
    </g>
</svg>