
<svg width="16px" height="19px" viewBox="0 0 16 19" version="1.1" xmlns="http://www.w3.org/2000/svg" xmlns:xlink="http://www.w3.org/1999/xlink">
    <defs>
        <polygon id="path-1" points="22 22 0 22 0 0 22 0"></polygon>
    </defs>
    <g id="Catalyst" stroke="none" stroke-width="1" fill="none" fill-rule="evenodd" opacity="0.600000024">
        <g id="Electron---Dashboard" transform="translate(-1158.000000, -938.000000)">
            <g id="Podcast-Player" transform="translate(105.000000, 918.000000)">
                <g id="ic_forward_30_black_24px" transform="translate(1050.000000, 19.000000)">
                    <mask id="mask-2" fill="white">
                        <use xlink:href="#path-1"></use>
                    </mask>
                    <g id="a"></g>
                    <path d="M8.8,12.375 L9.16666667,12.375 C9.35,12.375 9.53333333,12.2833333 9.625,12.1916667 C9.71666667,12.1 9.80833333,12.0083333 9.80833333,11.825 L9.80833333,11.6416667 C9.80833333,11.6416667 9.71666667,11.55 9.71666667,11.4583333 C9.71666667,11.3666667 9.625,11.3666667 9.53333333,11.3666667 L9.075,11.3666667 C9.075,11.3666667 8.98333333,11.4583333 8.89166667,11.4583333 C8.8,11.4583333 8.8,11.55 8.8,11.6416667 L8.8,11.825 L7.88333333,11.825 C7.88333333,11.6416667 7.88333333,11.55 7.975,11.3666667 C8.06666667,11.1833333 8.15833333,11.0916667 8.25,11 C8.34166667,10.9083333 8.525,10.8166667 8.61666667,10.8166667 C8.70833333,10.8166667 8.98333333,10.725 9.075,10.725 C9.25833333,10.725 9.44166667,10.725 9.625,10.8166667 C9.80833333,10.9083333 9.9,10.9083333 10.0833333,11 C10.2666667,11.0916667 10.2666667,11.1833333 10.3583333,11.3666667 C10.45,11.55 10.45,11.6416667 10.45,11.825 L10.45,12.1 C10.45,12.1 10.3583333,12.2833333 10.3583333,12.375 C10.3583333,12.4666667 10.2666667,12.5583333 10.175,12.5583333 C10.0833333,12.5583333 9.99166667,12.65 9.9,12.7416667 C10.0833333,12.8333333 10.2666667,12.925 10.3583333,13.1083333 C10.45,13.2916667 10.5416667,13.475 10.5416667,13.6583333 C10.5416667,13.8416667 10.5416667,14.025 10.45,14.1166667 C10.3583333,14.2083333 10.2666667,14.3916667 10.175,14.4833333 C10.0833333,14.575 9.9,14.6666667 9.71666667,14.6666667 C9.53333333,14.6666667 9.35,14.7583333 9.16666667,14.7583333 C8.98333333,14.7583333 8.8,14.7583333 8.70833333,14.6666667 C8.61666667,14.575 8.43333333,14.575 8.25,14.4833333 C8.06666667,14.3916667 8.06666667,14.3 7.975,14.1166667 C7.88333333,13.9333333 7.88333333,13.75 7.88333333,13.5666667 L8.61666667,13.5666667 L8.61666667,13.75 C8.61666667,13.75 8.70833333,13.8416667 8.70833333,13.9333333 C8.70833333,14.025 8.8,14.025 8.89166667,14.025 L9.35,14.025 C9.35,14.025 9.44166667,13.9333333 9.53333333,13.9333333 C9.625,13.9333333 9.625,13.8416667 9.625,13.75 L9.625,13.2916667 C9.625,13.2916667 9.53333333,13.2 9.53333333,13.1083333 C9.53333333,13.0166667 9.44166667,13.0166667 9.35,13.0166667 L8.8,13.0166667 L8.8,12.375 L8.8,12.375 Z M14.025,13.0166667 C14.025,13.2916667 14.025,13.5666667 13.9333333,13.75 L13.6583333,14.3 C13.6583333,14.3 13.3833333,14.575 13.2,14.575 C13.0166667,14.575 12.8333333,14.6666667 12.65,14.6666667 C12.4666667,14.6666667 12.2833333,14.6666667 12.1,14.575 C11.9166667,14.4833333 11.825,14.3916667 11.6416667,14.3 C11.4583333,14.2083333 11.4583333,14.025 11.3666667,13.75 C11.275,13.475 11.275,13.2916667 11.275,13.0166667 L11.275,12.375 C11.275,12.1 11.275,11.825 11.3666667,11.6416667 L11.6416667,11.0916667 C11.6416667,11.0916667 11.9166667,10.8166667 12.1,10.8166667 C12.2833333,10.8166667 12.4666667,10.725 12.65,10.725 C12.8333333,10.725 13.0166667,10.725 13.2,10.8166667 C13.3833333,10.9083333 13.475,11 13.6583333,11.0916667 C13.8416667,11.1833333 13.8416667,11.3666667 13.9333333,11.6416667 C14.025,11.9166667 14.025,12.1 14.025,12.375 L14.025,13.0166667 Z M13.2,12.2833333 L13.2,11.825 C13.2,11.825 13.1083333,11.6416667 13.1083333,11.55 C13.1083333,11.4583333 13.0166667,11.4583333 12.925,11.3666667 C12.8333333,11.275 12.7416667,11.275 12.65,11.275 C12.5583333,11.275 12.4666667,11.275 12.375,11.3666667 L12.1916667,11.55 C12.1916667,11.55 12.1,11.7333333 12.1,11.825 L12.1,13.6583333 C12.1,13.6583333 12.1916667,13.8416667 12.1916667,13.9333333 C12.1916667,14.025 12.2833333,14.025 12.375,14.1166667 C12.4666667,14.2083333 12.5583333,14.2083333 12.65,14.2083333 C12.7416667,14.2083333 12.8333333,14.2083333 12.925,14.1166667 L13.1083333,13.9333333 C13.1083333,13.9333333 13.2,13.75 13.2,13.6583333 L13.2,12.2833333 Z M3.66666667,11.9166667 C3.66666667,15.95 6.96666667,19.25 11,19.25 C15.0333333,19.25 18.3333333,15.95 18.3333333,11.9166667 L16.5,11.9166667 C16.5,14.9416667 14.025,17.4166667 11,17.4166667 C7.975,17.4166667 5.5,14.9416667 5.5,11.9166667 C5.5,8.89166667 7.975,6.41666667 11,6.41666667 L11,10.0833333 L15.5833333,5.5 L11,0.916666667 L11,4.58333333 C6.96666667,4.58333333 3.66666667,7.88333333 3.66666667,11.9166667 Z" id="Shape" fill="#000000" fill-rule="nonzero" mask="url(#mask-2)"></path>
                </g>
            </g>
        </g>
    </g>
</svg>
