
<svg width="20px" height="16px" viewBox="0 0 20 16" version="1.1" xmlns="http://www.w3.org/2000/svg" xmlns:xlink="http://www.w3.org/1999/xlink">
    <g id="Catalyst" stroke="none" stroke-width="1" fill="none" fill-rule="evenodd">
        <g id="Electron---Dashboard" transform="translate(-983.000000, -943.000000)" fill-rule="nonzero" fill="#BB261A">
            <g id="Podcast-Player" transform="translate(105.000000, 918.000000)">
                <g id="ios-heart-outline" transform="translate(878.000000, 25.000000)">
                    <path d="M14.6154018,0 C12.855625,0 10.9451339,0.799954545 10,2.4 C9.05491071,0.799954545 7.144375,0 5.38459821,0 C2.30566964,0 0,1.96536364 0,5.26268182 C0,6.68486364 0.560803571,8.53195455 1.82691964,10.0652727 C3.09294643,11.5986818 3.84607143,12.4152727 6.29803571,14.0652727 C8.75,15.7153636 10,16 10,16 C10,16 11.25,15.7153636 13.7019643,14.0652727 C16.1538839,12.4152727 16.9070536,11.5986818 18.1730804,10.0652727 C19.4391964,8.53195455 20,6.68486364 20,5.26268182 C20,1.96536364 17.6943304,0 14.6154018,0 Z M17.6263393,9.59731818 C16.4275893,11.0491364 15.7433036,11.8198182 13.3080804,13.4585455 C11.5117857,14.6674545 10.3950446,15.1085909 9.99995536,15.2418636 C9.60486607,15.1085455 8.48816964,14.6673636 6.69183036,13.4585455 C4.25665179,11.8198182 3.57236607,11.0491818 2.37357143,9.59727273 C1.83495536,8.94495455 1.3978125,8.17572727 1.10946429,7.37259091 C0.850982143,6.6525 0.714285714,5.92290909 0.714285714,5.26268182 C0.714285714,3.88613636 1.1665625,2.73345455 2.0221875,1.92927273 C2.43022321,1.54577273 2.92209821,1.24781818 3.48433036,1.04363636 C4.06223214,0.833681818 4.7015625,0.727272727 5.38459821,0.727272727 C7.08183036,0.727272727 8.65321429,1.531 9.38790179,2.77481818 L10,3.81109091 L10.6120982,2.77481818 C11.3468304,1.531 12.9182143,0.727272727 14.6154018,0.727272727 C15.2984375,0.727272727 15.9377679,0.833681818 16.5156696,1.04359091 C17.0779018,1.24781818 17.5697768,1.54577273 17.9778125,1.92922727 C18.8334375,2.73345455 19.2857143,3.88613636 19.2857143,5.26268182 C19.2857143,5.92290909 19.1490179,6.6525 18.8904464,7.37259091 C18.6021429,8.17568182 18.165,8.94495455 17.6263393,9.59731818 Z" id="Shape"></path>
                </g>
            </g>
        </g>
    </g>
</svg>
