<svg width="19px" height="15px" viewBox="0 0 19 15" version="1.1" xmlns="http://www.w3.org/2000/svg" xmlns:xlink="http://www.w3.org/1999/xlink">
    <g id="Catalyst" stroke="none" stroke-width="1" fill="none" fill-rule="evenodd" opacity="0.5">
        <g id="Electron---Dashboard" transform="translate(-1228.000000, -941.000000)" fill-rule="nonzero" fill="#000000">
            <g id="Podcast-Player" transform="translate(105.000000, 918.000000)">
                <g id="ios-volume-high" transform="translate(1123.000000, 23.000000)">
                    <g id="Group" transform="translate(9.678125, 0.000000)">
                        <path d="M6.8340625,0 L6.0265625,0.603515625 C7.4575,2.53125 8.3125,4.91601562 8.3125,7.5 C8.3125,10.0839844 7.4575,12.46875 6.020625,14.3964844 L6.828125,15 C8.3896875,12.9082031 9.3159375,10.3125 9.3159375,7.5 C9.3159375,4.6875 8.395625,2.09179687 6.8340625,0 Z" id="Shape"></path>
                        <path d="M3.621875,13.1132812 C4.809375,11.5429687 5.521875,9.60351562 5.521875,7.5 C5.521875,5.39648437 4.809375,3.45703125 3.621875,1.88671875 L2.814375,2.47851562 C3.8771875,3.88476562 4.5125,5.61914062 4.5125,7.5 C4.5125,9.38085938 3.8771875,11.1152344 2.814375,12.5214844 L3.621875,13.1132812 Z" id="Shape"></path>
                        <path d="M0.8371875,11.2441406 C1.650625,10.1953125 2.1375,8.90625 2.1375,7.5 C2.1375,6.09375 1.650625,4.8046875 0.8371875,3.75585937 L0.035625,4.33007812 C0.724375,5.21484375 1.1340625,6.31054687 1.1340625,7.5 C1.1340625,8.68945312 0.724375,9.77929687 0.035625,10.6699219 L0.8371875,11.2441406 Z" id="Shape"></path>
                    </g>
                    <polygon id="Shape" points="3.4378125 5.15625 0 5.15625 0 9.84375 3.4378125 9.84375 7.6 13.125 7.6 1.875"></polygon>
                </g>
            </g>
        </g>
    </g>
</svg>
