<!--?xml version="1.0" encoding="UTF-8"?-->
<svg width="30px" height="31px" viewBox="0 0 30 31" version="1.1" xmlns="http://www.w3.org/2000/svg" xmlns:xlink="http://www.w3.org/1999/xlink" style="">
    <!-- Generator: Sketch 48.2 (47327) - http://www.bohemiancoding.com/sketch -->
    <title>winds</title>
    <desc>Created with Sketch.</desc>
    <defs></defs>
    <g id="winds_landing-copy-2" stroke="none" stroke-width="1" fill="none" fill-rule="evenodd" transform="translate(-215.000000, -63.000000)" stroke-linecap="round" stroke-linejoin="round">
        <g id="LOGO" transform="translate(216.000000, 59.000000)" stroke="#FFFFFF" stroke-width="2">
            <g id="winds-word-logo" transform="translate(0.000000, 5.000000)">
                <g id="winds">
                    <path d="M21.0761809,4.07068421 C21.1563819,2.5961614 19.9782915,0.114880702 17.0560804,0.00050877193 C17.021809,-0.000814035088 16.9875377,0.000814035088 16.9536683,0.00386666667 C11.2794975,0.511824561 12.2521608,8.17708421 17.0560804,8.14085965 C23.3546734,8.09334035 27.1063317,8.14085965 27.1063317,8.14085965" id="Stroke-6" class="ktwPTffJ_0"></path>
                    <path d="M8.01085427,10.1759474 C8.09105528,8.70142456 6.91296482,6.22014386 3.99075377,6.10577193 C3.95648241,6.10444912 3.92221106,6.10607719 3.88834171,6.10912982 C-1.78582915,6.61708772 -0.813165829,14.2823474 3.99075377,14.2461228 C10.2893467,14.1986035 27.1063317,14.2461228 27.1063317,14.2461228" id="Stroke-7" class="ktwPTffJ_1"></path>
                    <path d="M13.0359799,24.4211544 C13.1161809,25.8956772 11.9380905,28.3769579 9.0158794,28.4913298 C8.98160804,28.4927544 8.94733668,28.4910246 8.91346734,28.4879719 C3.23929648,27.980014 4.2119598,20.3148561 9.0158794,20.3509789 C15.3144724,20.3984982 27.1063317,20.3509789 27.1063317,20.3509789" id="Stroke-8" class="ktwPTffJ_2"></path>
                </g>
            </g>
        </g>
    </g>
<style>.ktwPTffJ_0{stroke-dasharray:30 32;stroke-dashoffset:31;animation:ktwPTffJ_draw_0 2801ms linear 0ms infinite,ktwPTffJ_fade 2801ms linear 0ms infinite;}.ktwPTffJ_1{stroke-dasharray:43 45;stroke-dashoffset:44;animation:ktwPTffJ_draw_1 2801ms linear 0ms infinite,ktwPTffJ_fade 2801ms linear 0ms infinite;}.ktwPTffJ_2{stroke-dasharray:38 40;stroke-dashoffset:39;animation:ktwPTffJ_draw_2 2801ms linear 0ms infinite,ktwPTffJ_fade 2801ms linear 0ms infinite;}@keyframes ktwPTffJ_draw{100%{stroke-dashoffset:0;}}@keyframes ktwPTffJ_fade{0%{stroke-opacity:1;}99.96429846483399%{stroke-opacity:1;}100%{stroke-opacity:0;}}@keyframes ktwPTffJ_draw_0{10.71046054980364%{stroke-dashoffset: 31}64.26276329882185%{ stroke-dashoffset: 0;}100%{ stroke-dashoffset: 0;}}@keyframes ktwPTffJ_draw_1{10.71046054980364%{stroke-dashoffset: 44}64.26276329882185%{ stroke-dashoffset: 0;}100%{ stroke-dashoffset: 0;}}@keyframes ktwPTffJ_draw_2{10.71046054980364%{stroke-dashoffset: 39}64.26276329882185%{ stroke-dashoffset: 0;}100%{ stroke-dashoffset: 0;}}</style></svg>
