<?xml version="1.0" encoding="UTF-8"?>
<svg width="20px" height="19px" viewBox="0 0 20 19" version="1.1" xmlns="http://www.w3.org/2000/svg" xmlns:xlink="http://www.w3.org/1999/xlink">
    <!-- Generator: Sketch 49.1 (51147) - http://www.bohemiancoding.com/sketch -->
    <title>home</title>
    <desc>Created with Sketch.</desc>
    <defs></defs>
    <g id="Featured" stroke="none" stroke-width="1" fill="none" fill-rule="evenodd">
        <g id="Featured-RSS" transform="translate(-200.000000, -94.000000)" fill="#000000">
            <g id="Header-Controls" transform="translate(125.000000, 91.000000)">
                <path d="M89.9997526,22.0005 L87.9997516,22.0005 C86.896751,22.0005 85.9997505,21.1035 85.9997505,20.0005 L85.9997505,17.0005 L83.9997495,17.0005 L83.9997495,20.0005 C83.9997495,21.1035 83.103749,22.0005 81.9997484,22.0005 L79.9997474,22.0005 C78.8967468,22.0005 77.9997464,21.1035 77.9997464,20.0005 L77.9997464,14.0005 L75.9997453,14.0005 C75.5957451,14.0005 75.2297449,13.7565 75.0757449,13.3825 C74.9217448,13.0095 75.0067448,12.5795 75.292745,12.2925 L84.2927496,3.2925 C84.6837498,2.9025 85.3157502,2.9025 85.7067504,3.2925 L94.706755,12.2925 C94.9927552,12.5795 95.0777552,13.0085 94.9237551,13.3825 C94.7697551,13.7565 94.4047549,14.0005 93.9997547,14.0005 L91.9997536,14.0005 L91.9997536,20.0005 C91.9997536,21.1025 91.1027532,22.0005 89.9997526,22.0005 Z M82.9997448,15.0005 L86.9997448,15.0005 C87.5527448,15.0005 87.9997448,15.4485 87.9997448,16.0005 L87.9997448,20.0005 L90.0017448,20.0005 L89.9997448,13.0005 C89.9997448,12.4485 90.4467448,12.0005 90.9997448,12.0005 L91.5857448,12.0005 L84.9997448,5.4145 L78.4137448,11.9995 L78.9997448,11.9995 C79.5527448,11.9995 79.9997448,12.4475 79.9997448,12.9995 L79.9997448,19.9995 L81.9997448,19.9995 L81.9997448,15.9995 C81.9997448,15.4485 82.4467448,15.0005 82.9997448,15.0005 Z" id="home"></path>
            </g>
        </g>
    </g>
</svg>