
<svg width="25px" height="35px" viewBox="0 0 25 35" version="1.1" xmlns="http://www.w3.org/2000/svg" xmlns:xlink="http://www.w3.org/1999/xlink">
    <g id="Page-1" stroke="none" stroke-width="1" fill="none" fill-rule="evenodd">
        <g id="Electron---Log-In--reset" transform="translate(-569.000000, -426.000000)" fill-rule="nonzero" fill="#000000">
            <g id="Group" transform="translate(569.000000, 426.000000)">
                <g id="ios-locked">
                    <path d="M20.625,14.5685619 L20.625,8.60869565 C20.625,3.85487458 16.9873438,0 12.50125,0 C8.01265625,0 4.375,3.85487458 4.375,8.60869565 L4.375,14.5685619 L0,14.5685619 L0,34.4347826 L25,34.4347826 L25,14.5685619 L20.625,14.5685619 Z M13.125,25.0804415 L13.125,27.812709 L11.875,27.812709 L11.875,25.0804415 C10.7967188,24.7863386 10,23.7492391 10,22.5150502 C10,21.0521513 11.1192969,19.8662207 12.5,19.8662207 C13.8807031,19.8662207 15,21.0521513 15,22.5150502 C15,23.7492391 14.2032813,24.7863386 13.125,25.0804415 Z M19.375,14.5685619 L5.625,14.5685619 L5.625,8.60869565 C5.625,4.5921597 8.7096875,1.32441472 12.50125,1.32441472 C16.2914844,1.32441472 19.375,4.5921597 19.375,8.60869565 L19.375,14.5685619 Z" id="Shape"></path>
                    <path d="M12.5,21.1906355 C11.8107812,21.1906355 11.25,21.784801 11.25,22.5150502 C11.25,23.2452993 11.8107812,23.8394649 12.5,23.8394649 C13.1892188,23.8394649 13.75,23.2452993 13.75,22.5150502 C13.75,21.784801 13.1892188,21.1906355 12.5,21.1906355 Z" id="Shape"></path>
                </g>
            </g>
        </g>
    </g>
</svg>
