
<svg width="16px" height="17px" viewBox="0 0 16 17" version="1.1" xmlns="http://www.w3.org/2000/svg" xmlns:xlink="http://www.w3.org/1999/xlink">
    <g id="Page-1" stroke="none" stroke-width="1" fill="none" fill-rule="evenodd">
        <g id="Electron---RSS" transform="translate(-1196.000000, -107.000000)">
            <g id="Header-Controls" transform="translate(125.000000, 102.000000)">
                <g id="Bell-Icon" transform="translate(1072.000000, 5.000000)">
                    <path d="M0,14 C0.666666667,13.3758952 1,12.7517904 1,12.1276855 C1,10.0851237 1,9.04256185 1,9 C1,5.6862915 3.6862915,3 7,3 C10.3137085,3 13,5.6862915 13,9 C13,9.68923611 13,10.7061632 13,12.0507812 C13,12.483941 13.3333333,13.1336806 14,14" id="Rectangle-9" stroke="#000000" stroke-width="2" stroke-linecap="round"></path>
                    <path d="M5,15 C5,16.1045695 5.8954305,17 7,17 L7,17 C8.1045695,17 9,16.1045695 9,15" id="Oval-8" fill="#000000"></path>
                    <path d="M5,0 C5,1.1045695 5.8954305,2 7,2 L7,2 C8.1045695,2 9,1.1045695 9,0" id="Oval-8" fill="#000000" transform="translate(7.000000, 1.000000) scale(1, -1) translate(-7.000000, -1.000000) "></path>
                </g>
            </g>
        </g>
    </g>
</svg>
