<svg width="20px" height="3px" viewBox="0 0 20 3" version="1.1" xmlns="http://www.w3.org/2000/svg" xmlns:xlink="http://www.w3.org/1999/xlink">
    <g id="Page-1" stroke="none" stroke-width="1" fill="none" fill-rule="evenodd" opacity="1">
        <g id="Electron---Dashboard" transform="translate(-477.000000, -170.000000)" fill-rule="nonzero" fill="#44bc75">
            <g id="FEEDS" transform="translate(107.000000, 160.000000)">
                <g id="ios-more-outline" transform="translate(370.826733, 10.000000)">
                    <path d="M9.5470297,0 C10.3761139,0 11.0544554,0.675 11.0544554,1.5 C11.0544554,2.325 10.3761139,3 9.5470297,3 C8.71794554,3 8.03960396,2.325 8.03960396,1.5 C8.03960396,0.675 8.71794554,0 9.5470297,0 L9.5470297,0 Z" id="Shape"></path>
                    <path d="M1.50742574,0 C2.3365099,0 3.01485149,0.675 3.01485149,1.5 C3.01485149,2.325 2.3365099,3 1.50742574,3 C0.678341584,3 -3.64153152e-13,2.325 -3.64153152e-13,1.5 C-3.64153152e-13,0.675 0.678341584,0 1.50742574,0 L1.50742574,0 Z" id="Shape"></path>
                    <path d="M17.5866337,0 C18.4157178,0 19.0940594,0.675 19.0940594,1.5 C19.0940594,2.325 18.4157178,3 17.5866337,3 C16.7575495,3 16.0792079,2.325 16.0792079,1.5 C16.0792079,0.675 16.7575495,0 17.5866337,0 L17.5866337,0 Z" id="Shape"></path>
                </g>
            </g>
        </g>
    </g>
</svg>
