<?xml version="1.0" encoding="UTF-8"?>
<svg xmlns="http://www.w3.org/2000/svg" xmlns:xlink="http://www.w3.org/1999/xlink" width="15px" height="14px" version="1.1" viewBox="0 0 15 14">
    <g id="Page-1" fill="none" fill-rule="evenodd" stroke="none" stroke-linecap="round" stroke-linejoin="round" stroke-width="1" opacity="0.699999988">
        <g stroke="#000000" transform="translate(-252.000000, -358.000000)">
            <g id="Group" transform="translate(105.000000, 45.000000)">
                <g id="TODAY" transform="translate(19.000000, 173.000000)">
                    <g id="highlights" transform="translate(129.000000, 140.000000)">
                        <g id="Group-8">
                            <g id="Group-688">
                                <path id="Stroke-5582" d="M1.95451667,9.1693 C1.91776667,9.20605 0.4396,12.9679667 0.4396,12.9679667 C0.3136,13.27305 0.653683333,13.6481333 0.984433333,13.5122167 C0.984433333,13.5122167 4.76501667,12.0538833 4.80235,12.01655"/>
                                <path id="Stroke-5583" stroke-width="0.583333333" d="M1.01400833,11.5094583 L2.450175,12.945625"/>
                                <path id="Stroke-5584" d="M13.01335,2.17898333 L11.6886,0.854233333 C11.2907667,0.4564 10.64385,0.4564 10.2454333,0.854233333 L1.94285,9.15681667 L4.81401667,12.0285667 L13.01335,3.82923333 C13.4689333,3.37365 13.4689333,2.63456667 13.01335,2.17898333 Z"/>
                                <path id="Stroke-5587" stroke-width="0.583333333" d="M3.58376667,10.7979083 L10.3521833,4.02949167"/>
                            </g>
                        </g>
                    </g>
                </g>
            </g>
        </g>
    </g>
</svg>
