<svg width="14px" height="14px" viewBox="0 0 14 14" version="1.1" xmlns="http://www.w3.org/2000/svg" xmlns:xlink="http://www.w3.org/1999/xlink">
    <g id="Catalyst" stroke="none" stroke-width="1" fill="none" fill-rule="evenodd">
        <g id="Electron---Dashboard" transform="translate(-1289.000000, -627.000000)">
            <g id="RSS" transform="translate(927.000000, 160.000000)">
                <g id="Flattened-Image-#flatten" transform="translate(0.000000, 35.000000)">
                    <g id="rssfeeds-" transform="translate(0.000000, -2.000000)">
                        <g id="rssfeeds-#flatten">
                            <g id="feeds" transform="translate(17.000000, 181.000000)">
                                <g id="PINS" transform="translate(0.000000, 200.000000)">
                                    <g id="today:-item" transform="translate(12.000000, 40.000000)">
                                        <g id="pin-1" transform="translate(332.000000, 12.000000)">
                                            <g id="Frames-24px">
                                                <rect id="Rectangle-path" x="0" y="0" width="16" height="16"></rect>
                                            </g>
                                            <g id="Nova_line" transform="translate(1.333333, 1.333333)" fill-rule="nonzero" fill="#aaaaaa">
                                                <path d="M13.0186667,6.85266667 L6.41933333,0.253333333 L5.47666667,1.19533333 L6.42,2.13866667 L6.42,2.14 L3.12,5.43866667 L3.11933333,5.44 L2.17666667,4.496 L1.234,5.43933333 L4.06266667,8.26733333 L0.291333333,12.038 L1.234,12.9806667 L5.00533333,9.21 L7.834,12.038 L8.77666667,11.096 L7.834,10.1526667 L7.834,10.1526667 L11.134,6.85266667 L11.134,6.85266667 L12.0766667,7.79533333 L13.0186667,6.85266667 Z M6.89133333,9.20933333 L6.89066667,9.21 L4.06266667,6.38133333 L7.362,3.08133333 L10.19,5.90933333 L6.89133333,9.20933333 Z" id="Shape"></path>
                                            </g>
                                        </g>
                                    </g>
                                </g>
                            </g>
                        </g>
                    </g>
                </g>
            </g>
        </g>
    </g>
</svg>
