<svg width="12px" height="14px" viewBox="0 0 12 14" version="1.1" xmlns="http://www.w3.org/2000/svg" xmlns:xlink="http://www.w3.org/1999/xlink">
    <g id="Catalyst" stroke="none" stroke-width="1" fill="none" fill-rule="evenodd">
        <g id="Electron---Dashboard" transform="translate(-590.000000, -248.000000)" fill-rule="nonzero" fill="#000000">
            <g id="Podcasts" transform="translate(517.000000, 160.000000)">
                <g id="Flattened-Image-#flatten" transform="translate(0.000000, 35.000000)">
                    <g id="Artboard-/-Podcasts-Style-" transform="translate(0.000000, -2.000000)">
                        <g id="Artboard-/-Podcasts-Style-#flatten">
                            <g id="Podasts-#flatten">
                                <g id="recommended" transform="translate(18.000000, 2.000000)">
                                    <g id="Group-3" transform="translate(40.000000, 40.000000)">
                                        <path d="M25.6977679,18.8436384 L16.065625,13.1107143 C15.9479911,13.0415179 15.8268973,13 15.6885045,13 C15.3113839,13 15.0034598,13.3113839 15.0034598,13.6919643 L15,13.6919643 L15,25.59375 L15.0034598,25.59375 C15.0034598,25.9743304 15.3113839,26.2857143 15.6885045,26.2857143 C15.8303571,26.2857143 15.9479911,26.2372768 16.0760045,26.1680804 L25.6977679,20.4420759 C25.9261161,20.2517857 26.0714286,19.9646205 26.0714286,19.6428571 C26.0714286,19.3210937 25.9261161,19.0373884 25.6977679,18.8436384 Z" id="Shape"></path>
                                    </g>
                                </g>
                            </g>
                        </g>
                    </g>
                </g>
            </g>
        </g>
    </g>
</svg>
