<?xml version="1.0" encoding="iso-8859-1"?>
<svg xmlns="http://www.w3.org/2000/svg" xmlns:xlink="http://www.w3.org/1999/xlink" width="16px" height="16px" x="0px" y="0px" style="enable-background:new 0 0 16 16" version="1.1" viewBox="0 0 512 512" xml:space="preserve">
    <g>
        <g>
            <path fill="#757575" d="M407,0H105C47.103,0,0,47.103,0,105v302c0,57.897,47.103,105,105,105h302c57.897,0,105-47.103,105-105V105    C512,47.103,464.897,0,407,0z M308.558,340.537l-9.273,74.185C297.408,429.734,284.646,441,269.517,441h-27.033    c-15.13,0-27.892-11.266-29.768-26.279l-9.273-74.185C199.49,308.923,224.14,281,256,281c-24.813,0-45-20.187-45-45    s20.187-45,45-45s45,20.187,45,45s-20.187,45-45,45C287.86,281,312.51,308.923,308.558,340.537z M256,161    c-46.869,0-85,38.131-85,85c0,16.893,4.974,32.637,13.505,45.883c-6.132,10.42-9.908,22.057-11.076,34.072    C153.368,305.245,141,277.042,141,246c0-63.411,51.589-115,115-115s115,51.589,115,115c0,31.042-12.368,59.245-32.428,79.956    c-1.168-12.016-4.945-23.652-11.076-34.072C336.026,278.637,341,262.893,341,246C341,199.131,302.869,161,256,161z     M330.838,404.168l4.617-36.938C374.901,341.289,401,296.639,401,246c0-79.953-65.047-145-145-145s-145,65.047-145,145    c0,50.639,26.099,95.289,65.545,121.23l4.617,36.938C122.004,376.063,81,315.734,81,246c0-96.495,78.505-175,175-175    s175,78.505,175,175C431,315.734,389.996,376.063,330.838,404.168z"/>
        </g>
    </g>
</svg>
