<?xml version="1.0" encoding="UTF-8"?>
<svg width="21px" height="18px" viewBox="0 0 21 18" version="1.1" xmlns="http://www.w3.org/2000/svg" xmlns:xlink="http://www.w3.org/1999/xlink">
    <!-- Generator: Sketch 49.1 (51147) - http://www.bohemiancoding.com/sketch -->
    <title>refresh</title>
    <desc>Created with Sketch.</desc>
    <defs></defs>
    <g id="Featured" stroke="none" stroke-width="1" fill="none" fill-rule="evenodd">
        <g id="Featured-RSS" transform="translate(-252.000000, -95.000000)" fill="#000000" fill-rule="nonzero">
            <g id="Header-Controls" transform="translate(125.000000, 91.000000)">
                <g id="refresh" transform="translate(127.000000, 4.000000)">
                    <path d="M9,18 C4,18 0,14 0,9 C0,6.6 0.9,4.3 2.6,2.6 C4.3,0.9 6.6,0 9,0 C14,0 18,4 18,9 C18,9.6 17.6,10 17,10 C16.4,10 16,9.6 16,9 C16,5.1 12.9,2 9,2 C7.1,2 5.4,2.7 4,4 C2.7,5.3 2,7.1 2,9 C2,12.9 5.1,16 9,16 C10.9,16 12.6,15.3 14,14 C14.4,13.6 15,13.6 15.4,14 C15.8,14.4 15.8,15 15.4,15.4 C13.7,17.1 11.4,18 9,18 Z" id="Shape"></path>
                    <path d="M17,10 C16.8,10 16.6,9.9 16.4,9.8 L13,7.3 C12.6,7 12.5,6.3 12.8,5.9 C13.1,5.5 13.7,5.4 14.2,5.7 L17.6,8.2 C18,8.5 18.1,9.2 17.8,9.6 C17.6,9.9 17.3,10 17,10 Z" id="Shape"></path>
                    <path d="M17,10 C16.8,10 16.6,9.9 16.4,9.8 C16,9.5 15.9,8.8 16.2,8.4 L18.7,5 C19,4.6 19.7,4.5 20.1,4.8 C20.5,5.1 20.6,5.8 20.3,6.2 L17.8,9.6 C17.6,9.9 17.3,10 17,10 Z" id="Shape"></path>
                </g>
            </g>
        </g>
    </g>
</svg>