<?xml version="1.0" encoding="UTF-8"?>
<svg xmlns="http://www.w3.org/2000/svg" xmlns:xlink="http://www.w3.org/1999/xlink" width="16px" height="16px" version="1.1" viewBox="0 0 16 16">
    <g id="Page-1" fill="none" fill-rule="evenodd" stroke="none" stroke-width="1">
        <g fill="#757575" fill-rule="nonzero" transform="translate(-134.000000, -335.000000)">
            <g id="Group" transform="translate(105.000000, 45.000000)">
                <g id="TODAY" transform="translate(19.000000, 173.000000)">
                    <path id="Shape" d="M24.4,117 L11.6,117 C10.7168,117 10,117.7168 10,118.6 L10,131.4 C10,132.2824 10.7168,133 11.6,133 L24.4,133 C25.2832,133 26,132.2824 26,131.4 L26,118.6 C26,117.7168 25.2832,117 24.4,117 Z M14.8,129.8 C13.916,129.8 13.2,129.0832 13.2,128.2 C13.2,127.3168 13.916,126.6 14.8,126.6 C15.6832,126.6 16.4,127.3168 16.4,128.2 C16.4,129.0832 15.6832,129.8 14.8,129.8 Z M18,129.8 C18,127.1528 15.8472,125 13.2,125 L13.2,123.4 C16.7288,123.4 19.6,126.2712 19.6,129.8 L18,129.8 Z M21.2,129.8 C21.2,125.3888 17.6112,121.8 13.2,121.8 L13.2,120.2 C18.4936,120.2 22.8,124.5064 22.8,129.8 L21.2,129.8 Z"/>
                </g>
            </g>
        </g>
    </g>
</svg>
