<svg width="15px" height="15px" viewBox="0 0 15 15" version="1.1" xmlns="http://www.w3.org/2000/svg" xmlns:xlink="http://www.w3.org/1999/xlink">
    <defs>
        <path d="M9.22217758,3.03262628 C7.51263244,1.32308115 4.74217142,1.32308115 3.03262628,3.03262628 C1.32308115,4.74217142 1.32308115,7.51263244 3.03262628,9.22217758 C4.74217142,10.9317227 7.51263244,10.9317227 9.22217758,9.22217758 C10.9317227,7.51263244 10.9317227,4.74217142 9.22217758,3.03262628 M13.7739619,13.7739619 C13.4317027,14.1153457 12.8776105,14.1153457 12.5353513,13.7739619 L9.77889581,11.016631 C7.37870494,12.8110844 3.97537084,12.6412679 1.79489109,10.4599128 C-0.598297031,8.06759998 -0.598297031,4.18807922 1.79489109,1.79489109 C4.18720388,-0.598297031 8.06759998,-0.598297031 10.4599128,1.79489109 C12.6412679,3.97537084 12.8110844,7.37870494 11.016631,9.77889581 L13.7739619,12.5362267 C14.1153457,12.8776105 14.1153457,13.4317027 13.7739619,13.7739619" id="path-1"></path>
    </defs>
    <g id="Onboarding" stroke="none" stroke-width="1" fill="none" fill-rule="evenodd" opacity="0.5">
        <g id="Onboarding-dashboard" transform="translate(-1084.000000, -109.000000)">
            <g id="Header-Controls" transform="translate(125.000000, 102.000000)">
                <g id="Input-+-Right-Icon-Placeholder" transform="translate(210.000000, 0.000000)">
                    <g id="Icon/Search" transform="translate(748.000000, 6.000000)">
                        <g id="Group" transform="translate(1.000000, 1.000000)">
                            <mask id="mask-2" fill="white">
                                <use xlink:href="#path-1"></use>
                            </mask>
                            <g id="Search-icon"></g>
                            <g id="UI/Color/Flat/Icon-Color" mask="url(#mask-2)" fill="#C5D0DE">
                                <g transform="translate(-1.000000, -1.000000)" id="Base">
                                    <rect x="0" y="0" width="16" height="16"></rect>
                                </g>
                            </g>
                        </g>
                    </g>
                </g>
            </g>
        </g>
    </g>
</svg>
