<?xml version="1.0" encoding="UTF-8"?>
<svg xmlns="http://www.w3.org/2000/svg" xmlns:xlink="http://www.w3.org/1999/xlink" width="16px" height="16px" version="1.1" viewBox="0 0 16 16">
    <g id="Page-1" fill="none" fill-rule="evenodd" stroke="none" stroke-width="1" opacity="0.5">
        <g transform="translate(-135.000000, -274.000000)">
            <g id="Group" transform="translate(105.000000, 45.000000)">
                <g id="TODAY" transform="translate(19.000000, 173.000000)">
                    <g id="today:-item" transform="translate(12.000000, 43.000000)">
                        <g id="Group-72" opacity="0.699999988" transform="translate(0.000000, 14.000000)">
                            <path id="Stroke-1892" stroke="#000000" stroke-linecap="round" stroke-linejoin="round" d="M0.313016667,1.01085833 L0.46935,5.49960833 C0.475766667,5.672275 0.54635,5.83560833 0.668266667,5.957525 L8.18101667,13.470275 C8.44701667,13.736275 8.8781,13.736275 9.1441,13.470275 L13.4765167,9.13785833 C13.7425167,8.87185833 13.7425167,8.440775 13.4765167,8.174775 L5.96435,0.662025 C5.84243333,0.540108333 5.67851667,0.468941667 5.50643333,0.463108333 L1.0171,0.306775 C0.622766667,0.293358333 0.2996,0.616525 0.313016667,1.01085833 Z"/>
                            <path id="Stroke-1893" stroke="#000000" stroke-linecap="round" stroke-linejoin="round" d="M1.76686667,9.38116667 L3.05486667,13.1168333 C3.17795,13.4726667 3.56528333,13.6610833 3.92053333,13.5385833 L5.37128333,13.0386667"/>
                            <path id="Stroke-1894" fill="#000000" d="M4,2 C4.09763476,2.68317172 4.09763476,3.31641565 4,4 C3.31655666,4.09765491 2.68344334,4.09765491 2,4 C1.90236524,3.31641565 1.90236524,2.68317172 2,2 C2.68344334,1.90248264 3.31655666,1.90248264 4,2 Z"/>
                        </g>
                    </g>
                </g>
            </g>
        </g>
    </g>
</svg>
