<?xml version="1.0" encoding="UTF-8"?>
<svg xmlns="http://www.w3.org/2000/svg" xmlns:xlink="http://www.w3.org/1999/xlink" width="17px" height="15px" version="1.1" viewBox="0 0 17 15">
    <g id="Page-1" fill="none" fill-rule="evenodd" stroke="none" stroke-width="1">
        <g transform="translate(-136.000000, -314.000000)">
            <g id="Group" transform="translate(105.000000, 45.000000)">
                <g id="TODAY" transform="translate(19.000000, 173.000000)">
                    <g id="today:-item" transform="translate(12.000000, 83.000000)">
                        <g id="Group-72" transform="translate(0.000000, 11.000000)">
                            <path id="Stroke-1893" stroke="#000000" stroke-linecap="round" stroke-linejoin="round" d="M3.76686667,11.3811667 L5.05486667,15.1168333 C5.17795,15.4726667 5.56528333,15.6610833 5.92053333,15.5385833 L7.37128333,15.0386667"/>
                            <path id="Path-2" fill="#D8D8D8" d="M3,10.5 L8.10185849,14.8730216 C9.21091839,15.8236443 10.8314255,15.8764309 12,15 L3,10.5 Z"/>
                            <g id="Group-3" transform="translate(9.000000, 9.000000) rotate(-20.000000) translate(-9.000000, -9.000000) translate(2.000000, 2.000000)">
                                <path id="Stroke-1892" stroke="#000000" stroke-linecap="round" stroke-linejoin="round" d="M0.313016667,1.01085833 L0.46935,5.49960833 C0.475766667,5.672275 0.54635,5.83560833 0.668266667,5.957525 L8.18101667,13.470275 C8.44701667,13.736275 8.8781,13.736275 9.1441,13.470275 L13.4765167,9.13785833 C13.7425167,8.87185833 13.7425167,8.440775 13.4765167,8.174775 L5.96435,0.662025 C5.84243333,0.540108333 5.67851667,0.468941667 5.50643333,0.463108333 L1.0171,0.306775 C0.622766667,0.293358333 0.2996,0.616525 0.313016667,1.01085833 Z"/>
                                <path id="Stroke-1894" fill="#000000" d="M4,2 C4.09763476,2.68317172 4.09763476,3.31641565 4,4 C3.31655666,4.09765491 2.68344334,4.09765491 2,4 C1.90236524,3.31641565 1.90236524,2.68317172 2,2 C2.68344334,1.90248264 3.31655666,1.90248264 4,2 Z"/>
                            </g>
                        </g>
                    </g>
                </g>
            </g>
        </g>
    </g>
</svg>
